<svg xmlns="http://www.w3.org/2000/svg" xmlns:xlink="http://www.w3.org/1999/xlink" xmlns:lucid="lucid" width="1823.95" height="1525.8"><g transform="translate(-36.05 -39.4)" lucid:page-tab-id="0_0"><path d="M0 0h2400v1600H0z" fill="#fff"/><path d="M224 220c-13.25 0-24 10.75-24 24v72c0 13.25 10.75 24 24 24h112c13.25 0 24-10.75 24-24v-72c0-13.25-10.75-24-24-24z" stroke="#000" stroke-width="2" fill="#fff"/><path d="M200 264h160" stroke="#000" stroke-width="2" fill="none"/><use xlink:href="#a" transform="matrix(1,0,0,1,232,220) translate(26 25.6)"/><path d="M300 120c0 11.05-8.95 20-20 20s-20-8.95-20-20 8.95-20 20-20 20 8.95 20 20z" stroke="#000" stroke-width="2"/><path d="M280 142v58.5" stroke="#000" stroke-width="2" fill="none"/><path d="M279.96 141l1.04-.03v1.06h-2v-1.15z"/><path d="M280 215.76l-4.64-14.26h9.28z" stroke="#000" stroke-width="2"/><path d="M362 280h378.5" stroke="#000" stroke-width="2" fill="none"/><path d="M362.03 281H361v-2h1.03z"/><path d="M755.76 280l-14.26 4.64v-9.28z" stroke="#000" stroke-width="2"/><path d="M224 460c-13.25 0-24 10.75-24 24v72c0 13.25 10.75 24 24 24h112c13.25 0 24-10.75 24-24v-72c0-13.25-10.75-24-24-24z" stroke="#000" stroke-width="2" fill="#fff"/><path d="M200 504h160" stroke="#000" stroke-width="2" fill="none"/><use xlink:href="#b" transform="matrix(1,0,0,1,232,460) translate(26.025 25.6)"/><use xlink:href="#c" transform="matrix(1,0,0,1,216,520) translate(18.574999999999996 14.799999999999999)"/><use xlink:href="#d" transform="matrix(1,0,0,1,216,520) translate(61.475 14.799999999999999)"/><use xlink:href="#e" transform="matrix(1,0,0,1,216,520) translate(20.574999999999996 36.4)"/><path d="M280 342v98.5" stroke="#000" stroke-width="2" fill="none"/><path d="M281 342.03h-2V341h2z"/><path d="M280 455.76l-4.64-14.26h9.28z" stroke="#000" stroke-width="2"/><path d="M784 220c-13.25 0-24 10.75-24 24v72c0 13.25 10.75 24 24 24h112c13.25 0 24-10.75 24-24v-72c0-13.25-10.75-24-24-24z" stroke="#000" stroke-width="2" fill="#fff"/><path d="M760 264h160" stroke="#000" stroke-width="2" fill="none"/><use xlink:href="#f" transform="matrix(1,0,0,1,792,220) translate(0.09999999999999432 25.6)"/><use xlink:href="#g" transform="matrix(1,0,0,1,776,280) translate(19.049999999999997 14.799999999999999)"/><use xlink:href="#h" transform="matrix(1,0,0,1,776,280) translate(59 14.799999999999999)"/><use xlink:href="#e" transform="matrix(1,0,0,1,776,280) translate(20.574999999999996 36.4)"/><path d="M1100 260l20 20-20 20-20-20z" stroke="#000" stroke-width="2" fill="#fff"/><path d="M922 280h138.08" stroke="#000" stroke-width="2" fill="none"/><path d="M922.03 281H921v-2h1.03z"/><path d="M1075.35 280l-14.27 4.64v-9.28z" stroke="#000" stroke-width="2"/><path d="M1044 60c-13.25 0-24 10.75-24 24v72c0 13.25 10.75 24 24 24h112c13.25 0 24-10.75 24-24V84c0-13.25-10.75-24-24-24z" stroke="#000" stroke-width="2" fill="#fff"/><path d="M1020 104h160" stroke="#000" stroke-width="2" fill="none"/><use xlink:href="#i" transform="matrix(1,0,0,1,1052,60) translate(26.025 14.799999999999999)"/><use xlink:href="#j" transform="matrix(1,0,0,1,1052,60) translate(24.025 36.4)"/><use xlink:href="#k" transform="matrix(1,0,0,1,1036,120) translate(8.099999999999994 14.799999999999999)"/><use xlink:href="#l" transform="matrix(1,0,0,1,1036,120) translate(22.049999999999994 14.799999999999999)"/><use xlink:href="#m" transform="matrix(1,0,0,1,1036,120) translate(73 14.799999999999999)"/><use xlink:href="#n" transform="matrix(1,0,0,1,1036,120) translate(45.075 36.4)"/><path d="M1101 257.6h-2v-27h2zm0-48.6h-2v-9.5h2z"/><path d="M1101 259.6l-1-1-1 1v-2.04h2zM1104.64 198.5h-9.28l4.64-14.26z"/><path d="M1106 199.5h-12l6-18.5zm-9.26-2h6.52l-3.26-10.03z"/><use xlink:href="#o" transform="matrix(1,0,0,1,1085.325,208.99289321881344) translate(0 14.4)"/><path d="M1018 120H840v80.5" stroke="#000" stroke-width="2" fill="none"/><path d="M1019 121h-1.03v-2h1.03z"/><path d="M840 215.76l-4.64-14.26h9.28z" stroke="#000" stroke-width="2"/><path d="M1044 660c-13.25 0-24 10.75-24 24v72c0 13.25 10.75 24 24 24h112c13.25 0 24-10.75 24-24v-72c0-13.25-10.75-24-24-24z" stroke="#000" stroke-width="2" fill="#fff"/><path d="M1020 704h160" stroke="#000" stroke-width="2" fill="none"/><use xlink:href="#p" transform="matrix(1,0,0,1,1052,660) translate(4.049999999999997 25.6)"/><use xlink:href="#g" transform="matrix(1,0,0,1,1036,720) translate(0.5999999999999943 14.799999999999999)"/><use xlink:href="#q" transform="matrix(1,0,0,1,1036,720) translate(40.55 14.799999999999999)"/><use xlink:href="#r" transform="matrix(1,0,0,1,1036,720) translate(58.5 14.799999999999999)"/><use xlink:href="#s" transform="matrix(1,0,0,1,1036,720) translate(26.025 36.4)"/><use xlink:href="#t" transform="matrix(1,0,0,1,1036,720) translate(41.025 36.4)"/><path d="M1100 420l20 20-20 20-20-20z" stroke="#000" stroke-width="2" fill="#fff"/><path d="M1101 400.08h-2V370.8h2zm0-50.88h-2v-46.8h2z"/><path d="M1101 302.44h-2v-2.03l1 1 1-1zM1100 415.35l-4.64-14.27h9.28z"/><path d="M1100 418.6l-6-18.52h12zm-3.26-16.52l3.26 10.03 3.26-10.02z"/><use xlink:href="#u" transform="matrix(1,0,0,1,1088.525,349.2) translate(0 14.4)"/><path d="M1101 640.5h-2V571h2zm0-91.1h-2v-87h2z"/><path d="M1101 462.44h-2v-2.03l1 1 1-1zM1100 655.76l-4.64-14.26h9.28z"/><path d="M1100 659l-6-18.5h12zm-3.26-16.5l3.26 10.03 3.26-10.03z"/><use xlink:href="#o" transform="matrix(1,0,0,1,1085.325,549.4071067811866) translate(0 14.4)"/><path d="M841 439h57.32v2H839v-81.5h2zm236.6 0v2H921.26v-2z"/><path d="M1078.6 440l1 1h-2.04v-2h2.03zM844.64 358.5h-9.28l4.64-14.26z"/><path d="M846 359.5h-12l6-18.5zm-9.26-2h6.52L840 347.47z"/><use xlink:href="#u" transform="matrix(1,0,0,1,898.3178932188134,429.2) translate(0 14.4)"/><path d="M280 700l20 20-20 20-20-20z" stroke="#000" stroke-width="2" fill="#fff"/><path d="M280 582v98.08" stroke="#000" stroke-width="2" fill="none"/><path d="M281 582.03h-2V581h2z"/><path d="M280 695.35l-4.64-14.27h9.28z" stroke="#000" stroke-width="2"/><path d="M645.53 721H302.4v-2h343.13zm354.97 0H674.88v-2h325.62z"/><path d="M302.44 721h-2.03l1-1-1-1h2.04zM1015.76 720l-14.26 4.64v-9.28z"/><path d="M1019 720l-18.5 6v-12zm-16.5 3.26l10.03-3.26-10.03-3.26z"/><use xlink:href="#o" transform="matrix(1,0,0,1,645.5321067811866,709.2) translate(0 14.4)"/><path d="M84 800c-13.25 0-24 10.75-24 24v72c0 13.25 10.75 24 24 24h112c13.25 0 24-10.75 24-24v-72c0-13.25-10.75-24-24-24z" stroke="#000" stroke-width="2" fill="#fff"/><path d="M60 844h160" stroke="#000" stroke-width="2" fill="none"/><use xlink:href="#v" transform="matrix(1,0,0,1,92,800) translate(26.025 14.799999999999999)"/><use xlink:href="#w" transform="matrix(1,0,0,1,92,800) translate(22.049999999999997 36.4)"/><use xlink:href="#x" transform="matrix(1,0,0,1,76,860) translate(17.125 14.799999999999999)"/><use xlink:href="#y" transform="matrix(1,0,0,1,76,860) translate(60.025 14.799999999999999)"/><use xlink:href="#z" transform="matrix(1,0,0,1,76,860) translate(6.099999999999994 36.4)"/><use xlink:href="#A" transform="matrix(1,0,0,1,76,860) translate(48.949999999999996 36.4)"/><path d="M281 861h-41.5v-2H279v-18h2zm0-41.6h-2v-77h2z"/><path d="M281 742.44h-2v-2.03l1 1 1-1zM238.5 864.64L224.24 860l14.26-4.64z"/><path d="M239.5 866l-18.5-6 18.5-6zm-12.03-6l10.03 3.26v-6.52z"/><use xlink:href="#u" transform="matrix(1,0,0,1,268.525,819.4071067811866) translate(0 14.4)"/><path d="M140 798V520h40.5" stroke="#000" stroke-width="2" fill="none"/><path d="M141 799h-2v-1.03h2z"/><path d="M195.76 520l-14.26 4.64v-9.28z" stroke="#000" stroke-width="2"/><path d="M724 960c-13.25 0-24 10.75-24 24v72c0 13.25 10.75 24 24 24h112c13.25 0 24-10.75 24-24v-72c0-13.25-10.75-24-24-24z" stroke="#000" stroke-width="2" fill="#fff"/><path d="M700 1004h160" stroke="#000" stroke-width="2" fill="none"/><use xlink:href="#B" transform="matrix(1,0,0,1,732,960) translate(19.549999999999997 25.6)"/><use xlink:href="#C" transform="matrix(1,0,0,1,716,1020) translate(5.074999999999996 14.799999999999999)"/><use xlink:href="#D" transform="matrix(1,0,0,1,716,1020) translate(62.975 14.799999999999999)"/><use xlink:href="#E" transform="matrix(1,0,0,1,716,1020) translate(49.575 36.4)"/><path d="M1524 940c-13.25 0-24 10.75-24 24v72c0 13.25 10.75 24 24 24h152c13.25 0 24-10.75 24-24v-72c0-13.25-10.75-24-24-24z" stroke="#000" stroke-width="2" fill="#fff"/><path d="M1500 984h200" stroke="#000" stroke-width="2" fill="none"/><use xlink:href="#F" transform="matrix(1,0,0,1,1540,940) translate(9.724999999999994 25.6)"/><use xlink:href="#G" transform="matrix(1,0,0,1,1540,940) translate(64.675 25.6)"/><use xlink:href="#H" transform="matrix(1,0,0,1,1520,1000) translate(9.574999999999989 14.799999999999999)"/><use xlink:href="#I" transform="matrix(1,0,0,1,1520,1000) translate(57.52499999999999 14.799999999999999)"/><use xlink:href="#J" transform="matrix(1,0,0,1,1520,1000) translate(131.425 14.799999999999999)"/><use xlink:href="#K" transform="matrix(1,0,0,1,1520,1000) translate(55.05 36.4)"/><path d="M745.67 940.5h-2v-63.37h2zm274.45-173.4H745.67v66.83h-2V765.1h276.45z"/><path d="M1021.12 766.1l.58 1h-1.6v-2h.7zM744.67 955.76l-4.64-14.26h9.27z"/><path d="M744.67 959l-6.02-18.5h12.03zm-3.26-16.5l3.27 10.03 3.26-10.03z"/><use xlink:href="#g" transform="matrix(1,0,0,1,676.7166666666666,833.9308615049073) translate(0 14.4)"/><use xlink:href="#L" transform="matrix(1,0,0,1,676.7166666666666,833.9308615049073) translate(39.95 14.4)"/><use xlink:href="#M" transform="matrix(1,0,0,1,676.7166666666666,833.9308615049073) translate(0 36)"/><use xlink:href="#N" transform="matrix(1,0,0,1,676.7166666666666,833.9308615049073) translate(20 36)"/><use xlink:href="#O" transform="matrix(1,0,0,1,676.7166666666666,833.9308615049073) translate(78.95 36)"/><path d="M780 1240l20 20-20 20-20-20z" stroke="#000" stroke-width="2" fill="#fff"/><path d="M780 1082v138.08" stroke="#000" stroke-width="2" fill="none"/><path d="M781 1082.03h-2V1081h2z"/><path d="M780 1235.35l-4.64-14.27h9.28z" stroke="#000" stroke-width="2"/><path d="M724 1400c-13.25 0-24 10.75-24 24v72c0 13.25 10.75 24 24 24h112c13.25 0 24-10.75 24-24v-72c0-13.25-10.75-24-24-24z" stroke="#000" stroke-width="2" fill="#fff"/><path d="M700 1444h160" stroke="#000" stroke-width="2" fill="none"/><use xlink:href="#P" transform="matrix(1,0,0,1,732,1400) translate(19.549999999999997 14.799999999999999)"/><use xlink:href="#Q" transform="matrix(1,0,0,1,732,1400) translate(28.725 36.4)"/><use xlink:href="#R" transform="matrix(1,0,0,1,716,1460) translate(13.075000000000003 14.4)"/><use xlink:href="#S" transform="matrix(1,0,0,1,716,1460) translate(40.975 14.4)"/><use xlink:href="#T" transform="matrix(1,0,0,1,716,1460) translate(20.575000000000003 36)"/><use xlink:href="#m" transform="matrix(1,0,0,1,716,1460) translate(60.525000000000006 36)"/><use xlink:href="#U" transform="matrix(1,0,0,1,716,1460) translate(21.525 57.6)"/><path d="M921 1461h-59v-2h57v-344.8h2zm111.4-620H921v230h-2V839h111.4v-42.9h2z"/><path d="M862.03 1461H861v-2h1.03zM1036.03 795.1h-9.27l4.64-14.26z"/><path d="M1037.4 796.1h-12.02l6.02-18.5zm-9.26-2h6.5l-3.24-10.03z"/><use xlink:href="#g" transform="matrix(1,0,0,1,866.575,1071.0026521085679) translate(0 14.4)"/><use xlink:href="#V" transform="matrix(1,0,0,1,866.575,1071.0026521085679) translate(39.95 14.4)"/><use xlink:href="#M" transform="matrix(1,0,0,1,866.575,1071.0026521085679) translate(0 36)"/><use xlink:href="#U" transform="matrix(1,0,0,1,866.575,1071.0026521085679) translate(20 36)"/><path d="M781 1380.5h-2V1351h2zm0-51.1h-2v-47h2z"/><path d="M781 1282.44h-2v-2.03l1 1 1-1zM780 1395.76l-4.64-14.26h9.28z"/><path d="M780 1399l-6-18.5h12zm-3.26-16.5l3.26 10.03 3.26-10.03z"/><use xlink:href="#o" transform="matrix(1,0,0,1,765.325,1329.4071067811867) translate(0 14.4)"/><path d="M660 1259h97.6v2H658v-80.4h2zm20.5-238H660v138h-2v-140h22.5z"/><path d="M758.6 1260l1 1h-2.04v-2h2.03zM695.76 1020l-14.26 4.64v-9.28z"/><path d="M699 1020l-18.5 6v-12zm-16.5 3.26l10.03-3.26-10.03-3.26z"/><use xlink:href="#u" transform="matrix(1,0,0,1,647.525,1158.9928932188134) translate(0 14.4)"/><path d="M780 1230h120v60H780z" stroke="#000" stroke-opacity="0" stroke-width="2" fill="#fff" fill-opacity="0"/><use xlink:href="#W" transform="matrix(1,0,0,1,785,1235) translate(10.424999999999997 17.525)"/><use xlink:href="#X" transform="matrix(1,0,0,1,785,1235) translate(53.974999999999994 17.525)"/><use xlink:href="#Y" transform="matrix(1,0,0,1,785,1235) translate(40.575 39.125)"/><path d="M1182 720h415.56v200.5" stroke="#000" stroke-width="2" fill="none"/><path d="M1182.03 721H1181v-2h1.03z"/><path d="M1597.56 935.76l-4.63-14.26h9.27z" stroke="#000" stroke-width="2"/><path d="M1702 1000h39V676.9h-542.65" stroke="#000" stroke-width="2" fill="none"/><path d="M1702.03 1001H1701v-2h1.03z"/><path d="M1183.08 676.9l14.27-4.64v9.27z" stroke="#000" stroke-width="2"/><path d="M1120 410h240v60h-240z" stroke="#000" stroke-opacity="0" stroke-width="2" fill="#fff" fill-opacity="0"/><use xlink:href="#Z" transform="matrix(1,0,0,1,1125,415) translate(7.700000000000003 30.025)"/><use xlink:href="#aa" transform="matrix(1,0,0,1,1125,415) translate(59.7 30.025)"/><use xlink:href="#ab" transform="matrix(1,0,0,1,1125,415) translate(73.65 30.025)"/><use xlink:href="#q" transform="matrix(1,0,0,1,1125,415) translate(167.45 30.025)"/><use xlink:href="#ac" transform="matrix(1,0,0,1,1125,415) translate(185.39999999999998 30.025)"/><path d="M1120 250h240v60h-240z" stroke="#000" stroke-opacity="0" stroke-width="2" fill="#fff" fill-opacity="0"/><use xlink:href="#Z" transform="matrix(1,0,0,1,1125,255) translate(17.625 30.025)"/><use xlink:href="#aa" transform="matrix(1,0,0,1,1125,255) translate(69.625 30.025)"/><use xlink:href="#ad" transform="matrix(1,0,0,1,1125,255) translate(83.575 30.025)"/><use xlink:href="#ae" transform="matrix(1,0,0,1,1125,255) translate(123.525 30.025)"/><use xlink:href="#af" transform="matrix(1,0,0,1,1125,255) translate(166.425 30.025)"/><path d="M300 640h80v60h-80z" stroke="#000" stroke-opacity="0" stroke-width="2" fill="#fff" fill-opacity="0"/><use xlink:href="#Z" transform="matrix(1,0,0,1,305,645) translate(4.524999999999999 14.4)"/><use xlink:href="#ag" transform="matrix(1,0,0,1,305,645) translate(56.525 14.4)"/><use xlink:href="#ah" transform="matrix(1,0,0,1,305,645) translate(16.05 36)"/><use xlink:href="#ai" transform="matrix(1,0,0,1,305,645) translate(13.524999999999999 57.6)"/><path d="M1044 1060c-13.25 0-24 10.75-24 24v72c0 13.25 10.75 24 24 24h112c13.25 0 24-10.75 24-24v-72c0-13.25-10.75-24-24-24z" stroke="#000" stroke-width="2" fill="#fff"/><path d="M1020 1104h160" stroke="#000" stroke-width="2" fill="none"/><use xlink:href="#aj" transform="matrix(1,0,0,1,1052,1060) translate(0.9500000000000028 25.6)"/><use xlink:href="#ak" transform="matrix(1,0,0,1,1052,1060) translate(53.2 25.6)"/><use xlink:href="#al" transform="matrix(1,0,0,1,1036,1120) translate(22.575000000000003 25.6)"/><use xlink:href="#am" transform="matrix(1,0,0,1,1036,1120) translate(69.525 25.6)"/><path d="M1049.3 782v258.5" stroke="#000" stroke-width="2" fill="none"/><path d="M1050.3 782.03h-2V781h2z"/><path d="M1049.3 1055.76l-4.64-14.26h9.27z" stroke="#000" stroke-width="2"/><path d="M1100 1300l20 20-20 20-20-20z" stroke="#000" stroke-width="2" fill="#fff"/><path d="M1101 1280.08h-2V1244h2zm0-57.67h-2V1182h2z"/><path d="M1101 1182.03h-2V1181h2zM1100 1295.35l-4.64-14.27h9.28z"/><path d="M1100 1298.6l-6-18.52h12zm-3.26-16.52l3.26 10.03 3.26-10.02z"/><use xlink:href="#g" transform="matrix(1,0,0,1,1017.6,1222.4124318429663) translate(0 14.4)"/><use xlink:href="#an" transform="matrix(1,0,0,1,1017.6,1222.4124318429663) translate(39.95 14.4)"/><use xlink:href="#ao" transform="matrix(1,0,0,1,1017.6,1222.4124318429663) translate(122.85000000000001 14.4)"/><path d="M980 1290h100v60H980z" stroke="#000" stroke-opacity="0" stroke-width="2" fill="#fff" fill-opacity="0"/><use xlink:href="#k" transform="matrix(1,0,0,1,985,1295) translate(17.049999999999997 17.525)"/><use xlink:href="#ap" transform="matrix(1,0,0,1,985,1295) translate(30.999999999999996 17.525)"/><use xlink:href="#aq" transform="matrix(1,0,0,1,985,1295) translate(6.100000000000001 39.125)"/><use xlink:href="#ar" transform="matrix(1,0,0,1,985,1295) translate(47 39.125)"/><path d="M1044 1400c-13.25 0-24 10.75-24 24v72c0 13.25 10.75 24 24 24h112c13.25 0 24-10.75 24-24v-72c0-13.25-10.75-24-24-24z" stroke="#000" stroke-width="2" fill="#fff"/><path d="M1020 1444h160" stroke="#000" stroke-width="2" fill="none"/><g><use xlink:href="#aj" transform="matrix(1,0,0,1,1052,1400) translate(2.6000000000000014 25.6)"/><use xlink:href="#Q" transform="matrix(1,0,0,1,1052,1400) translate(54.85 25.6)"/></g><g><use xlink:href="#al" transform="matrix(1,0,0,1,1036,1460) translate(4.074999999999996 14.799999999999999)"/><use xlink:href="#as" transform="matrix(1,0,0,1,1036,1460) translate(51.025 14.799999999999999)"/><use xlink:href="#at" transform="matrix(1,0,0,1,1036,1460) translate(29.049999999999997 36.4)"/><use xlink:href="#K" transform="matrix(1,0,0,1,1036,1460) translate(49.05 36.4)"/></g><path d="M1101 1359.4h-2v-17h2z"/><path d="M1101 1342.44h-2v-2.03l1 1 1-1zM1100 1395.76l-4.64-14.26h9.28z"/><path d="M1100 1399l-5.85-18h11.7zm-3.26-16.5l3.26 10.03 3.26-10.03z"/><g><use xlink:href="#o" transform="matrix(1,0,0,1,1085.325,1359.4071067811867) translate(0 14.4)"/></g><path d="M1222 1321h-99.6v-2h97.6v-58.4h2zm0-82h-2v-118h-20.5v-2h22.5z"/><path d="M1122.44 1321h-2.03l1-1-1-1h2.04zM1198.5 1124.64l-14.26-4.64 14.26-4.64z"/><path d="M1199.5 1126l-18.5-6 18.5-6zm-12.03-6l10.03 3.26v-6.52z"/><g><use xlink:href="#u" transform="matrix(1,0,0,1,1209.525,1238.9928932188134) translate(0 14.4)"/></g><path d="M1600 1062v358.08" stroke="#000" stroke-width="2" fill="none"/><path d="M1601 1062.03h-2V1061h2z"/><path d="M1600 1435.35l-4.64-14.27h9.28z" stroke="#000" stroke-width="2"/><path d="M1600 1440l20 20-20 20-20-20z" stroke="#000" stroke-width="2" fill="#fff"/><path d="M1560 1480h80v60h-80z" stroke="#000" stroke-opacity="0" stroke-width="2" fill="#fff" fill-opacity="0"/><g><use xlink:href="#k" transform="matrix(1,0,0,1,1565,1485) translate(10.549999999999997 14.4)"/><use xlink:href="#au" transform="matrix(1,0,0,1,1565,1485) translate(24.499999999999996 14.4)"/><use xlink:href="#av" transform="matrix(1,0,0,1,1565,1485) translate(14.024999999999999 36)"/><use xlink:href="#aw" transform="matrix(1,0,0,1,1565,1485) translate(13.524999999999999 57.6)"/></g><path d="M1364 1400c-13.25 0-24 10.75-24 24v72c0 13.25 10.75 24 24 24h112c13.25 0 24-10.75 24-24v-72c0-13.25-10.75-24-24-24z" stroke="#000" stroke-width="2" fill="#fff"/><path d="M1340 1444h160" stroke="#000" stroke-width="2" fill="none"/><g><use xlink:href="#ax" transform="matrix(1,0,0,1,1372,1400) translate(23.525 14.799999999999999)"/><use xlink:href="#aw" transform="matrix(1,0,0,1,1372,1400) translate(26.525 36.4)"/></g><g><use xlink:href="#H" transform="matrix(1,0,0,1,1356,1460) translate(33.55 14.4)"/><use xlink:href="#ay" transform="matrix(1,0,0,1,1356,1460) translate(81.5 14.4)"/><use xlink:href="#az" transform="matrix(1,0,0,1,1356,1460) translate(8.599999999999994 36)"/><use xlink:href="#aA" transform="matrix(1,0,0,1,1356,1460) translate(83.5 36)"/><use xlink:href="#aB" transform="matrix(1,0,0,1,1356,1460) translate(24.049999999999997 57.6)"/><use xlink:href="#K" transform="matrix(1,0,0,1,1356,1460) translate(54.05 57.6)"/></g><path d="M1525.12 1461h-5.62v-2h5.62zm52.47 0h-23.13v-2h23.12z"/><path d="M1578.6 1460l1 1h-2.04v-2h2.03zM1518.5 1464.64l-14.26-4.64 14.26-4.64z"/><path d="M1519.5 1466l-18.5-6 18.5-6zm-12.03-6l10.03 3.26v-6.52z"/><g><use xlink:href="#o" transform="matrix(1,0,0,1,1525.1178932188134,1449.2) translate(0 14.4)"/></g><path d="M1678.37 1461h-55.96v-2h53.97v-159.8h2zm0-183.4h-2v-198.24h2z"/><path d="M1622.44 1461h-2.03l1-1-1-1h2.04zM1682 1078.36h-9.26l4.63-14.26z"/><path d="M1683.38 1079.36h-12.02l6-18.5zm-9.27-2h6.53l-3.26-10.03z"/><g><use xlink:href="#u" transform="matrix(1,0,0,1,1665.8976187235767,1277.6104751364853) translate(0 14.4)"/></g><path d="M420 240h240v60H420z" stroke="#000" stroke-opacity="0" stroke-width="2" fill="#fff" fill-opacity="0"/><g><use xlink:href="#c" transform="matrix(1,0,0,1,425,245) translate(11.099999999999994 30.025)"/><use xlink:href="#aC" transform="matrix(1,0,0,1,425,245) translate(54 30.025)"/><use xlink:href="#aD" transform="matrix(1,0,0,1,425,245) translate(117.95 30.025)"/><use xlink:href="#aE" transform="matrix(1,0,0,1,425,245) translate(155.9 30.025)"/></g><path d="M290 360h100v60H290z" stroke="#000" stroke-opacity="0" stroke-width="2" fill="#fff" fill-opacity="0"/><g><use xlink:href="#g" transform="matrix(1,0,0,1,295,365) translate(1.5750000000000028 14.4)"/><use xlink:href="#aF" transform="matrix(1,0,0,1,295,365) translate(41.525000000000006 14.4)"/><use xlink:href="#aG" transform="matrix(1,0,0,1,295,365) translate(29.049999999999997 36)"/><use xlink:href="#aH" transform="matrix(1,0,0,1,295,365) translate(4.599999999999994 57.6)"/><use xlink:href="#aI" transform="matrix(1,0,0,1,295,365) translate(26.05 79.20000000000002)"/></g><path d="M60 600h72v60H60z" stroke="#000" stroke-opacity="0" stroke-width="2" fill="#fff" fill-opacity="0"/><g><use xlink:href="#aJ" transform="matrix(1,0,0,1,65,605) translate(13.524999999999999 14.4)"/><use xlink:href="#aK" transform="matrix(1,0,0,1,65,605) translate(-6.950000000000003 36)"/><use xlink:href="#aL" transform="matrix(1,0,0,1,65,605) translate(12.075 57.6)"/><use xlink:href="#A" transform="matrix(1,0,0,1,65,605) translate(-5.475000000000001 79.20000000000002)"/></g><path d="M1740 780h100v60h-100z" stroke="#000" stroke-opacity="0" stroke-width="2" fill="#fff" fill-opacity="0"/><g><use xlink:href="#aJ" transform="matrix(1,0,0,1,1745,785) translate(27.525 14.4)"/><use xlink:href="#aM" transform="matrix(1,0,0,1,1745,785) translate(7.049999999999997 36)"/><use xlink:href="#aN" transform="matrix(1,0,0,1,1745,785) translate(67.94999999999999 36)"/><use xlink:href="#aO" transform="matrix(1,0,0,1,1745,785) translate(2.5249999999999986 57.6)"/></g><path d="M1500 770h100v60h-100z" stroke="#000" stroke-opacity="0" stroke-width="2" fill="#fff" fill-opacity="0"/><g><use xlink:href="#aP" transform="matrix(1,0,0,1,1505,775) translate(26.049999999999997 14.4)"/><use xlink:href="#aQ" transform="matrix(1,0,0,1,1505,775) translate(3.049999999999997 36)"/><use xlink:href="#aN" transform="matrix(1,0,0,1,1505,775) translate(71.95 36)"/><use xlink:href="#aR" transform="matrix(1,0,0,1,1505,775) translate(23.525 57.6)"/><use xlink:href="#aS" transform="matrix(1,0,0,1,1505,775) translate(20.549999999999997 79.20000000000002)"/><use xlink:href="#aT" transform="matrix(1,0,0,1,1505,775) translate(25 100.80000000000001)"/></g><path d="M1480 1192.6h100v74.8h-100z" stroke="#000" stroke-opacity="0" stroke-width="2" fill="#fff" fill-opacity="0"/><g><use xlink:href="#aJ" transform="matrix(1,0,0,1,1485,1197.6) translate(27.525 14.4)"/><use xlink:href="#aU" transform="matrix(1,0,0,1,1485,1197.6) translate(16.025 36)"/><use xlink:href="#aw" transform="matrix(1,0,0,1,1485,1197.6) translate(23.525 57.6)"/></g><path d="M1060 890h80v60h-80z" stroke="#000" stroke-opacity="0" stroke-width="2" fill="#fff" fill-opacity="0"/><g><use xlink:href="#aJ" transform="matrix(1,0,0,1,1065,895) translate(17.525 14.4)"/><use xlink:href="#aV" transform="matrix(1,0,0,1,1065,895) translate(3.0500000000000007 36)"/><use xlink:href="#at" transform="matrix(1,0,0,1,1065,895) translate(4.024999999999999 57.6)"/><use xlink:href="#ap" transform="matrix(1,0,0,1,1065,895) translate(24.025 57.6)"/><use xlink:href="#aW" transform="matrix(1,0,0,1,1065,895) translate(17.05 79.20000000000002)"/><use xlink:href="#aT" transform="matrix(1,0,0,1,1065,895) translate(15 100.80000000000001)"/></g><path d="M1220 1160h80v60h-80z" stroke="#000" stroke-opacity="0" stroke-width="2" fill="#fff" fill-opacity="0"/><g><use xlink:href="#aJ" transform="matrix(1,0,0,1,1225,1165) translate(17.525 14.4)"/><use xlink:href="#aX" transform="matrix(1,0,0,1,1225,1165) translate(13.524999999999999 36)"/><use xlink:href="#n" transform="matrix(1,0,0,1,1225,1165) translate(16.075 57.6)"/></g><defs><path d="M33 0v-248h34V0H33" id="aY"/><path d="M117-194c89-4 53 116 60 194h-32v-121c0-31-8-49-39-48C34-167 62-67 57 0H25l-1-190h30c1 10-1 24 2 32 11-22 29-35 61-36" id="aZ"/><path d="M85-194c31 0 48 13 60 33l-1-100h32l1 261h-30c-2-10 0-23-3-31C134-8 116 4 85 4 32 4 16-35 15-94c0-66 23-100 70-100zm9 24c-40 0-46 34-46 75 0 40 6 74 45 74 42 0 51-32 51-76 0-42-9-74-50-73" id="ba"/><path d="M100-194c63 0 86 42 84 106H49c0 40 14 67 53 68 26 1 43-12 49-29l28 8c-11 28-37 45-77 45C44 4 14-33 15-96c1-61 26-98 85-98zm52 81c6-60-76-77-97-28-3 7-6 17-6 28h103" id="bb"/><path d="M141 0L90-78 38 0H4l68-98-65-92h35l48 74 47-74h35l-64 92 68 98h-35" id="bc"/><g id="a"><use transform="matrix(0.05,0,0,0.05,0,0)" xlink:href="#aY"/><use transform="matrix(0.05,0,0,0.05,5,0)" xlink:href="#aZ"/><use transform="matrix(0.05,0,0,0.05,15,0)" xlink:href="#ba"/><use transform="matrix(0.05,0,0,0.05,25,0)" xlink:href="#bb"/><use transform="matrix(0.05,0,0,0.05,35,0)" xlink:href="#bc"/></g><path d="M30 0v-248h33v221h125V0H30" id="bd"/><path d="M100-194c62-1 85 37 85 99 1 63-27 99-86 99S16-35 15-95c0-66 28-99 85-99zM99-20c44 1 53-31 53-75 0-43-8-75-51-75s-53 32-53 75 10 74 51 75" id="be"/><path d="M177-190C167-65 218 103 67 71c-23-6-38-20-44-43l32-5c15 47 100 32 89-28v-30C133-14 115 1 83 1 29 1 15-40 15-95c0-56 16-97 71-98 29-1 48 16 59 35 1-10 0-23 2-32h30zM94-22c36 0 50-32 50-73 0-42-14-75-50-75-39 0-46 34-46 75s6 73 46 73" id="bf"/><path d="M24-231v-30h32v30H24zM24 0v-190h32V0H24" id="bg"/><g id="b"><use transform="matrix(0.05,0,0,0.05,0,0)" xlink:href="#bd"/><use transform="matrix(0.05,0,0,0.05,10,0)" xlink:href="#be"/><use transform="matrix(0.05,0,0,0.05,20,0)" xlink:href="#bf"/><use transform="matrix(0.05,0,0,0.05,30,0)" xlink:href="#bg"/><use transform="matrix(0.05,0,0,0.05,33.95,0)" xlink:href="#aZ"/></g><path d="M232-93c-1 65-40 97-104 97C67 4 28-28 28-90v-158h33c8 89-33 224 67 224 102 0 64-133 71-224h33v155" id="bh"/><path d="M135-143c-3-34-86-38-87 0 15 53 115 12 119 90S17 21 10-45l28-5c4 36 97 45 98 0-10-56-113-15-118-90-4-57 82-63 122-42 12 7 21 19 24 35" id="bi"/><path d="M114-163C36-179 61-72 57 0H25l-1-190h30c1 12-1 29 2 39 6-27 23-49 58-41v29" id="bj"/><g id="c"><use transform="matrix(0.05,0,0,0.05,0,0)" xlink:href="#bh"/><use transform="matrix(0.05,0,0,0.05,12.950000000000001,0)" xlink:href="#bi"/><use transform="matrix(0.05,0,0,0.05,21.950000000000003,0)" xlink:href="#bb"/><use transform="matrix(0.05,0,0,0.05,31.950000000000003,0)" xlink:href="#bj"/></g><path d="M115-194c55 1 70 41 70 98S169 2 115 4C84 4 66-9 55-30l1 105H24l-1-265h31l2 30c10-21 28-34 59-34zm-8 174c40 0 45-34 45-75s-6-73-45-74c-42 0-51 32-51 76 0 43 10 73 51 73" id="bk"/><path d="M84 4C-5 8 30-112 23-190h32v120c0 31 7 50 39 49 72-2 45-101 50-169h31l1 190h-30c-1-10 1-25-2-33-11 22-28 36-60 37" id="bl"/><path d="M59-47c-2 24 18 29 38 22v24C64 9 27 4 27-40v-127H5v-23h24l9-43h21v43h35v23H59v120" id="bm"/><g id="d"><use transform="matrix(0.05,0,0,0.05,0,0)" xlink:href="#bg"/><use transform="matrix(0.05,0,0,0.05,3.95,0)" xlink:href="#aZ"/><use transform="matrix(0.05,0,0,0.05,13.949999999999998,0)" xlink:href="#bk"/><use transform="matrix(0.05,0,0,0.05,23.95,0)" xlink:href="#bl"/><use transform="matrix(0.05,0,0,0.05,33.95,0)" xlink:href="#bm"/><use transform="matrix(0.05,0,0,0.05,38.95,0)" xlink:href="#bi"/></g><path d="M96-169c-40 0-48 33-48 73s9 75 48 75c24 0 41-14 43-38l32 2c-6 37-31 61-74 61-59 0-76-41-82-99-10-93 101-131 147-64 4 7 5 14 7 22l-32 3c-4-21-16-35-41-35" id="bn"/><path d="M141-36C126-15 110 5 73 4 37 3 15-17 15-53c-1-64 63-63 125-63 3-35-9-54-41-54-24 1-41 7-42 31l-33-3c5-37 33-52 76-52 45 0 72 20 72 64v82c-1 20 7 32 28 27v20c-31 9-61-2-59-35zM48-53c0 20 12 33 32 33 41-3 63-29 60-74-43 2-92-5-92 41" id="bo"/><path d="M24 0v-261h32V0H24" id="bp"/><g id="e"><use transform="matrix(0.05,0,0,0.05,0,0)" xlink:href="#bn"/><use transform="matrix(0.05,0,0,0.05,9,0)" xlink:href="#bj"/><use transform="matrix(0.05,0,0,0.05,14.949999999999998,0)" xlink:href="#bb"/><use transform="matrix(0.05,0,0,0.05,24.95,0)" xlink:href="#ba"/><use transform="matrix(0.05,0,0,0.05,34.95,0)" xlink:href="#bb"/><use transform="matrix(0.05,0,0,0.05,44.95,0)" xlink:href="#aZ"/><use transform="matrix(0.05,0,0,0.05,54.95,0)" xlink:href="#bm"/><use transform="matrix(0.05,0,0,0.05,59.95,0)" xlink:href="#bg"/><use transform="matrix(0.05,0,0,0.05,63.900000000000006,0)" xlink:href="#bo"/><use transform="matrix(0.05,0,0,0.05,73.9,0)" xlink:href="#bp"/><use transform="matrix(0.05,0,0,0.05,77.85000000000001,0)" xlink:href="#bi"/></g><path d="M233-177c-1 41-23 64-60 70L243 0h-38l-65-103H63V0H30v-248c88 3 205-21 203 71zM63-129c60-2 137 13 137-47 0-61-80-42-137-45v92" id="bq"/><g id="f"><use transform="matrix(0.05,0,0,0.05,0,0)" xlink:href="#bq"/><use transform="matrix(0.05,0,0,0.05,12.950000000000001,0)" xlink:href="#bb"/><use transform="matrix(0.05,0,0,0.05,22.950000000000003,0)" xlink:href="#bf"/><use transform="matrix(0.05,0,0,0.05,32.95,0)" xlink:href="#bg"/><use transform="matrix(0.05,0,0,0.05,36.900000000000006,0)" xlink:href="#bi"/><use transform="matrix(0.05,0,0,0.05,45.900000000000006,0)" xlink:href="#bm"/><use transform="matrix(0.05,0,0,0.05,50.900000000000006,0)" xlink:href="#bj"/><use transform="matrix(0.05,0,0,0.05,56.85,0)" xlink:href="#bo"/><use transform="matrix(0.05,0,0,0.05,66.85000000000001,0)" xlink:href="#bm"/><use transform="matrix(0.05,0,0,0.05,71.85000000000001,0)" xlink:href="#bg"/><use transform="matrix(0.05,0,0,0.05,75.80000000000001,0)" xlink:href="#be"/><use transform="matrix(0.05,0,0,0.05,85.80000000000001,0)" xlink:href="#aZ"/></g><g id="g"><use transform="matrix(0.05,0,0,0.05,0,0)" xlink:href="#bl"/><use transform="matrix(0.05,0,0,0.05,10,0)" xlink:href="#bi"/><use transform="matrix(0.05,0,0,0.05,19,0)" xlink:href="#bb"/><use transform="matrix(0.05,0,0,0.05,29,0)" xlink:href="#bj"/></g><g id="h"><use transform="matrix(0.05,0,0,0.05,0,0)" xlink:href="#bb"/><use transform="matrix(0.05,0,0,0.05,10,0)" xlink:href="#aZ"/><use transform="matrix(0.05,0,0,0.05,20,0)" xlink:href="#bm"/><use transform="matrix(0.05,0,0,0.05,25,0)" xlink:href="#bb"/><use transform="matrix(0.05,0,0,0.05,35,0)" xlink:href="#bj"/><use transform="matrix(0.05,0,0,0.05,40.95,0)" xlink:href="#bi"/></g><g id="i"><use transform="matrix(0.05,0,0,0.05,0,0)" xlink:href="#bd"/><use transform="matrix(0.05,0,0,0.05,10,0)" xlink:href="#be"/><use transform="matrix(0.05,0,0,0.05,20,0)" xlink:href="#bf"/><use transform="matrix(0.05,0,0,0.05,30,0)" xlink:href="#bg"/><use transform="matrix(0.05,0,0,0.05,33.95,0)" xlink:href="#aZ"/></g><path d="M30 0v-248h187v28H63v79h144v27H63v87h162V0H30" id="br"/><g id="j"><use transform="matrix(0.05,0,0,0.05,0,0)" xlink:href="#br"/><use transform="matrix(0.05,0,0,0.05,12,0)" xlink:href="#bc"/><use transform="matrix(0.05,0,0,0.05,21,0)" xlink:href="#bg"/><use transform="matrix(0.05,0,0,0.05,24.95,0)" xlink:href="#bi"/><use transform="matrix(0.05,0,0,0.05,33.95,0)" xlink:href="#bm"/><use transform="matrix(0.05,0,0,0.05,38.95,0)" xlink:href="#bi"/></g><path d="M101-234c-31-9-42 10-38 44h38v23H63V0H32v-167H5v-23h27c-7-52 17-82 69-68v24" id="bs"/><g id="k"><use transform="matrix(0.05,0,0,0.05,0,0)" xlink:href="#bg"/><use transform="matrix(0.05,0,0,0.05,3.95,0)" xlink:href="#bs"/></g><g id="l"><use transform="matrix(0.05,0,0,0.05,0,0)" xlink:href="#bb"/><use transform="matrix(0.05,0,0,0.05,10,0)" xlink:href="#bc"/><use transform="matrix(0.05,0,0,0.05,19,0)" xlink:href="#bg"/><use transform="matrix(0.05,0,0,0.05,22.95,0)" xlink:href="#bi"/><use transform="matrix(0.05,0,0,0.05,31.950000000000003,0)" xlink:href="#bm"/><use transform="matrix(0.05,0,0,0.05,36.95,0)" xlink:href="#bi"/></g><g id="m"><use transform="matrix(0.05,0,0,0.05,0,0)" xlink:href="#bj"/><use transform="matrix(0.05,0,0,0.05,5.95,0)" xlink:href="#bb"/><use transform="matrix(0.05,0,0,0.05,15.949999999999998,0)" xlink:href="#bm"/><use transform="matrix(0.05,0,0,0.05,20.95,0)" xlink:href="#bl"/><use transform="matrix(0.05,0,0,0.05,30.950000000000003,0)" xlink:href="#bj"/><use transform="matrix(0.05,0,0,0.05,36.9,0)" xlink:href="#aZ"/></g><g id="n"><use transform="matrix(0.05,0,0,0.05,0,0)" xlink:href="#bb"/><use transform="matrix(0.05,0,0,0.05,10,0)" xlink:href="#bj"/><use transform="matrix(0.05,0,0,0.05,15.949999999999998,0)" xlink:href="#bj"/><use transform="matrix(0.05,0,0,0.05,21.9,0)" xlink:href="#be"/><use transform="matrix(0.05,0,0,0.05,31.899999999999995,0)" xlink:href="#bj"/></g><path d="M137-103V0h-34v-103L8-248h37l75 118 75-118h37" id="bt"/><g id="o"><use transform="matrix(0.05,0,0,0.05,0,0)" xlink:href="#bt"/><use transform="matrix(0.05,0,0,0.05,10.35,0)" xlink:href="#bb"/><use transform="matrix(0.05,0,0,0.05,20.35,0)" xlink:href="#bi"/></g><path d="M197 0v-115H63V0H30v-248h33v105h134v-105h34V0h-34" id="bu"/><path d="M210-169c-67 3-38 105-44 169h-31v-121c0-29-5-50-35-48C34-165 62-65 56 0H25l-1-190h30c1 10-1 24 2 32 10-44 99-50 107 0 11-21 27-35 58-36 85-2 47 119 55 194h-31v-121c0-29-5-49-35-48" id="bv"/><g id="p"><use transform="matrix(0.05,0,0,0.05,0,0)" xlink:href="#bu"/><use transform="matrix(0.05,0,0,0.05,12.950000000000001,0)" xlink:href="#be"/><use transform="matrix(0.05,0,0,0.05,22.950000000000003,0)" xlink:href="#bv"/><use transform="matrix(0.05,0,0,0.05,37.900000000000006,0)" xlink:href="#bb"/><use transform="matrix(0.05,0,0,0.05,47.900000000000006,0)" xlink:href="#bk"/><use transform="matrix(0.05,0,0,0.05,57.900000000000006,0)" xlink:href="#bo"/><use transform="matrix(0.05,0,0,0.05,67.9,0)" xlink:href="#bf"/><use transform="matrix(0.05,0,0,0.05,77.9,0)" xlink:href="#bb"/></g><g id="q"><use transform="matrix(0.05,0,0,0.05,0,0)" xlink:href="#bg"/><use transform="matrix(0.05,0,0,0.05,3.95,0)" xlink:href="#bi"/></g><path d="M108 0H70L1-190h34L89-25l56-165h34" id="bw"/><g id="r"><use transform="matrix(0.05,0,0,0.05,0,0)" xlink:href="#bk"/><use transform="matrix(0.05,0,0,0.05,10,0)" xlink:href="#bj"/><use transform="matrix(0.05,0,0,0.05,15.949999999999998,0)" xlink:href="#be"/><use transform="matrix(0.05,0,0,0.05,25.950000000000003,0)" xlink:href="#bw"/><use transform="matrix(0.05,0,0,0.05,34.95,0)" xlink:href="#bg"/><use transform="matrix(0.05,0,0,0.05,38.900000000000006,0)" xlink:href="#ba"/><use transform="matrix(0.05,0,0,0.05,48.900000000000006,0)" xlink:href="#bb"/><use transform="matrix(0.05,0,0,0.05,58.900000000000006,0)" xlink:href="#ba"/></g><use transform="matrix(0.05,0,0,0.05,0,0)" xlink:href="#bo" id="s"/><g id="t"><use transform="matrix(0.05,0,0,0.05,0,0)" xlink:href="#bi"/><use transform="matrix(0.05,0,0,0.05,9,0)" xlink:href="#bb"/><use transform="matrix(0.05,0,0,0.05,19,0)" xlink:href="#bi"/><use transform="matrix(0.05,0,0,0.05,28,0)" xlink:href="#bi"/><use transform="matrix(0.05,0,0,0.05,37,0)" xlink:href="#bg"/><use transform="matrix(0.05,0,0,0.05,40.95,0)" xlink:href="#be"/><use transform="matrix(0.05,0,0,0.05,50.95,0)" xlink:href="#aZ"/></g><path d="M190 0L58-211 59 0H30v-248h39L202-35l-2-213h31V0h-41" id="bx"/><g id="u"><use transform="matrix(0.05,0,0,0.05,0,0)" xlink:href="#bx"/><use transform="matrix(0.05,0,0,0.05,12.950000000000001,0)" xlink:href="#be"/></g><g id="v"><use transform="matrix(0.05,0,0,0.05,0,0)" xlink:href="#bd"/><use transform="matrix(0.05,0,0,0.05,10,0)" xlink:href="#be"/><use transform="matrix(0.05,0,0,0.05,20,0)" xlink:href="#bf"/><use transform="matrix(0.05,0,0,0.05,30,0)" xlink:href="#bg"/><use transform="matrix(0.05,0,0,0.05,33.95,0)" xlink:href="#aZ"/></g><g id="w"><use transform="matrix(0.05,0,0,0.05,0,0)" xlink:href="#aY"/><use transform="matrix(0.05,0,0,0.05,5,0)" xlink:href="#aZ"/><use transform="matrix(0.05,0,0,0.05,15,0)" xlink:href="#bw"/><use transform="matrix(0.05,0,0,0.05,24,0)" xlink:href="#bo"/><use transform="matrix(0.05,0,0,0.05,34,0)" xlink:href="#bp"/><use transform="matrix(0.05,0,0,0.05,37.95,0)" xlink:href="#bg"/><use transform="matrix(0.05,0,0,0.05,41.900000000000006,0)" xlink:href="#ba"/></g><g id="x"><use transform="matrix(0.05,0,0,0.05,0,0)" xlink:href="#bp"/><use transform="matrix(0.05,0,0,0.05,3.95,0)" xlink:href="#be"/><use transform="matrix(0.05,0,0,0.05,13.949999999999998,0)" xlink:href="#bf"/><use transform="matrix(0.05,0,0,0.05,23.95,0)" xlink:href="#bg"/><use transform="matrix(0.05,0,0,0.05,27.899999999999995,0)" xlink:href="#aZ"/></g><g id="y"><use transform="matrix(0.05,0,0,0.05,0,0)" xlink:href="#bg"/><use transform="matrix(0.05,0,0,0.05,3.95,0)" xlink:href="#aZ"/><use transform="matrix(0.05,0,0,0.05,13.949999999999998,0)" xlink:href="#bw"/><use transform="matrix(0.05,0,0,0.05,22.95,0)" xlink:href="#bo"/><use transform="matrix(0.05,0,0,0.05,32.95,0)" xlink:href="#bp"/><use transform="matrix(0.05,0,0,0.05,36.900000000000006,0)" xlink:href="#bg"/><use transform="matrix(0.05,0,0,0.05,40.85000000000001,0)" xlink:href="#ba"/></g><g id="z"><use transform="matrix(0.05,0,0,0.05,0,0)" xlink:href="#bb"/><use transform="matrix(0.05,0,0,0.05,10,0)" xlink:href="#bj"/><use transform="matrix(0.05,0,0,0.05,15.949999999999998,0)" xlink:href="#bj"/><use transform="matrix(0.05,0,0,0.05,21.9,0)" xlink:href="#be"/><use transform="matrix(0.05,0,0,0.05,31.899999999999995,0)" xlink:href="#bj"/></g><g id="A"><use transform="matrix(0.05,0,0,0.05,0,0)" xlink:href="#bv"/><use transform="matrix(0.05,0,0,0.05,14.950000000000001,0)" xlink:href="#bb"/><use transform="matrix(0.05,0,0,0.05,24.950000000000003,0)" xlink:href="#bi"/><use transform="matrix(0.05,0,0,0.05,33.95,0)" xlink:href="#bi"/><use transform="matrix(0.05,0,0,0.05,42.95,0)" xlink:href="#bo"/><use transform="matrix(0.05,0,0,0.05,52.95,0)" xlink:href="#bf"/><use transform="matrix(0.05,0,0,0.05,62.95,0)" xlink:href="#bb"/></g><g id="B"><use transform="matrix(0.05,0,0,0.05,0,0)" xlink:href="#bh"/><use transform="matrix(0.05,0,0,0.05,12.950000000000001,0)" xlink:href="#bk"/><use transform="matrix(0.05,0,0,0.05,22.950000000000003,0)" xlink:href="#bp"/><use transform="matrix(0.05,0,0,0.05,26.900000000000002,0)" xlink:href="#be"/><use transform="matrix(0.05,0,0,0.05,36.900000000000006,0)" xlink:href="#bo"/><use transform="matrix(0.05,0,0,0.05,46.900000000000006,0)" xlink:href="#ba"/></g><path d="M185-189c-5-48-123-54-124 2 14 75 158 14 163 119 3 78-121 87-175 55-17-10-28-26-33-46l33-7c5 56 141 63 141-1 0-78-155-14-162-118-5-82 145-84 179-34 5 7 8 16 11 25" id="by"/><g id="C"><use transform="matrix(0.05,0,0,0.05,0,0)" xlink:href="#by"/><use transform="matrix(0.05,0,0,0.05,12,0)" xlink:href="#bb"/><use transform="matrix(0.05,0,0,0.05,22,0)" xlink:href="#bj"/><use transform="matrix(0.05,0,0,0.05,27.950000000000003,0)" xlink:href="#bw"/><use transform="matrix(0.05,0,0,0.05,36.95,0)" xlink:href="#bb"/><use transform="matrix(0.05,0,0,0.05,46.95,0)" xlink:href="#bj"/></g><path d="M212-179c-10-28-35-45-73-45-59 0-87 40-87 99 0 60 29 101 89 101 43 0 62-24 78-52l27 14C228-24 195 4 139 4 59 4 22-46 18-125c-6-104 99-153 187-111 19 9 31 26 39 46" id="bz"/><path d="M106-169C34-169 62-67 57 0H25v-261h32l-1 103c12-21 28-36 61-36 89 0 53 116 60 194h-32v-121c2-32-8-49-39-48" id="bA"/><path d="M143 0L79-87 56-68V0H24v-261h32v163l83-92h37l-77 82L181 0h-38" id="bB"/><g id="D"><use transform="matrix(0.05,0,0,0.05,0,0)" xlink:href="#bz"/><use transform="matrix(0.05,0,0,0.05,12.950000000000001,0)" xlink:href="#bA"/><use transform="matrix(0.05,0,0,0.05,22.950000000000003,0)" xlink:href="#bb"/><use transform="matrix(0.05,0,0,0.05,32.95,0)" xlink:href="#bn"/><use transform="matrix(0.05,0,0,0.05,41.95,0)" xlink:href="#bB"/><use transform="matrix(0.05,0,0,0.05,50.95,0)" xlink:href="#bi"/></g><path d="M63-220v92h138v28H63V0H30v-248h175v28H63" id="bC"/><g id="E"><use transform="matrix(0.05,0,0,0.05,0,0)" xlink:href="#bC"/><use transform="matrix(0.05,0,0,0.05,10.950000000000001,0)" xlink:href="#bg"/><use transform="matrix(0.05,0,0,0.05,14.9,0)" xlink:href="#bp"/><use transform="matrix(0.05,0,0,0.05,18.85,0)" xlink:href="#bb"/></g><g id="F"><use transform="matrix(0.05,0,0,0.05,0,0)" xlink:href="#by"/><use transform="matrix(0.05,0,0,0.05,12,0)" xlink:href="#bb"/><use transform="matrix(0.05,0,0,0.05,22,0)" xlink:href="#bp"/><use transform="matrix(0.05,0,0,0.05,25.950000000000003,0)" xlink:href="#bb"/><use transform="matrix(0.05,0,0,0.05,35.95,0)" xlink:href="#bn"/><use transform="matrix(0.05,0,0,0.05,44.95,0)" xlink:href="#bm"/></g><path d="M137 0h-34L2-248h35l83 218 83-218h36" id="bD"/><g id="G"><use transform="matrix(0.05,0,0,0.05,0,0)" xlink:href="#bD"/><use transform="matrix(0.05,0,0,0.05,11.65,0)" xlink:href="#bg"/><use transform="matrix(0.05,0,0,0.05,15.600000000000001,0)" xlink:href="#ba"/><use transform="matrix(0.05,0,0,0.05,25.6,0)" xlink:href="#bb"/><use transform="matrix(0.05,0,0,0.05,35.6,0)" xlink:href="#be"/></g><g id="H"><use transform="matrix(0.05,0,0,0.05,0,0)" xlink:href="#bw"/><use transform="matrix(0.05,0,0,0.05,9,0)" xlink:href="#bg"/><use transform="matrix(0.05,0,0,0.05,12.949999999999998,0)" xlink:href="#ba"/><use transform="matrix(0.05,0,0,0.05,22.95,0)" xlink:href="#bb"/><use transform="matrix(0.05,0,0,0.05,32.95,0)" xlink:href="#be"/></g><g id="I"><use transform="matrix(0.05,0,0,0.05,0,0)" xlink:href="#bk"/><use transform="matrix(0.05,0,0,0.05,10,0)" xlink:href="#bj"/><use transform="matrix(0.05,0,0,0.05,15.949999999999998,0)" xlink:href="#be"/><use transform="matrix(0.05,0,0,0.05,25.950000000000003,0)" xlink:href="#bw"/><use transform="matrix(0.05,0,0,0.05,34.95,0)" xlink:href="#bg"/><use transform="matrix(0.05,0,0,0.05,38.900000000000006,0)" xlink:href="#ba"/><use transform="matrix(0.05,0,0,0.05,48.900000000000006,0)" xlink:href="#bb"/><use transform="matrix(0.05,0,0,0.05,58.900000000000006,0)" xlink:href="#ba"/></g><path d="M115-194c53 0 69 39 70 98 0 66-23 100-70 100C84 3 66-7 56-30L54 0H23l1-261h32v101c10-23 28-34 59-34zm-8 174c40 0 45-34 45-75 0-40-5-75-45-74-42 0-51 32-51 76 0 43 10 73 51 73" id="bE"/><path d="M179-190L93 31C79 59 56 82 12 73V49c39 6 53-20 64-50L1-190h34L92-34l54-156h33" id="bF"/><g id="J"><use transform="matrix(0.05,0,0,0.05,0,0)" xlink:href="#bE"/><use transform="matrix(0.05,0,0,0.05,10,0)" xlink:href="#bF"/></g><g id="K"><use transform="matrix(0.05,0,0,0.05,0,0)" xlink:href="#bi"/><use transform="matrix(0.05,0,0,0.05,9,0)" xlink:href="#bb"/><use transform="matrix(0.05,0,0,0.05,19,0)" xlink:href="#bj"/><use transform="matrix(0.05,0,0,0.05,24.95,0)" xlink:href="#bw"/><use transform="matrix(0.05,0,0,0.05,33.95,0)" xlink:href="#bb"/><use transform="matrix(0.05,0,0,0.05,43.95,0)" xlink:href="#bj"/></g><g id="L"><use transform="matrix(0.05,0,0,0.05,0,0)" xlink:href="#ba"/><use transform="matrix(0.05,0,0,0.05,10,0)" xlink:href="#bg"/><use transform="matrix(0.05,0,0,0.05,13.949999999999998,0)" xlink:href="#bj"/><use transform="matrix(0.05,0,0,0.05,19.9,0)" xlink:href="#bb"/><use transform="matrix(0.05,0,0,0.05,29.899999999999995,0)" xlink:href="#bn"/><use transform="matrix(0.05,0,0,0.05,38.9,0)" xlink:href="#bm"/><use transform="matrix(0.05,0,0,0.05,43.9,0)" xlink:href="#bb"/><use transform="matrix(0.05,0,0,0.05,53.900000000000006,0)" xlink:href="#ba"/></g><g id="M"><use transform="matrix(0.05,0,0,0.05,0,0)" xlink:href="#bm"/><use transform="matrix(0.05,0,0,0.05,5,0)" xlink:href="#be"/></g><g id="N"><use transform="matrix(0.05,0,0,0.05,0,0)" xlink:href="#bl"/><use transform="matrix(0.05,0,0,0.05,10,0)" xlink:href="#bk"/><use transform="matrix(0.05,0,0,0.05,20,0)" xlink:href="#bp"/><use transform="matrix(0.05,0,0,0.05,23.95,0)" xlink:href="#be"/><use transform="matrix(0.05,0,0,0.05,33.95,0)" xlink:href="#bo"/><use transform="matrix(0.05,0,0,0.05,43.95,0)" xlink:href="#ba"/></g><g id="O"><use transform="matrix(0.05,0,0,0.05,0,0)" xlink:href="#bi"/><use transform="matrix(0.05,0,0,0.05,9,0)" xlink:href="#bb"/><use transform="matrix(0.05,0,0,0.05,19,0)" xlink:href="#bn"/><use transform="matrix(0.05,0,0,0.05,28,0)" xlink:href="#bm"/><use transform="matrix(0.05,0,0,0.05,33,0)" xlink:href="#bg"/><use transform="matrix(0.05,0,0,0.05,36.95,0)" xlink:href="#be"/><use transform="matrix(0.05,0,0,0.05,46.95,0)" xlink:href="#aZ"/></g><g id="P"><use transform="matrix(0.05,0,0,0.05,0,0)" xlink:href="#bh"/><use transform="matrix(0.05,0,0,0.05,12.950000000000001,0)" xlink:href="#bk"/><use transform="matrix(0.05,0,0,0.05,22.950000000000003,0)" xlink:href="#bp"/><use transform="matrix(0.05,0,0,0.05,26.900000000000002,0)" xlink:href="#be"/><use transform="matrix(0.05,0,0,0.05,36.900000000000006,0)" xlink:href="#bo"/><use transform="matrix(0.05,0,0,0.05,46.900000000000006,0)" xlink:href="#ba"/></g><g id="Q"><use transform="matrix(0.05,0,0,0.05,0,0)" xlink:href="#bD"/><use transform="matrix(0.05,0,0,0.05,10.65,0)" xlink:href="#bo"/><use transform="matrix(0.05,0,0,0.05,20.65,0)" xlink:href="#bp"/><use transform="matrix(0.05,0,0,0.05,24.599999999999998,0)" xlink:href="#bg"/><use transform="matrix(0.05,0,0,0.05,28.549999999999997,0)" xlink:href="#ba"/></g><g id="R"><use transform="matrix(0.05,0,0,0.05,0,0)" xlink:href="#bs"/><use transform="matrix(0.05,0,0,0.05,5,0)" xlink:href="#bg"/><use transform="matrix(0.05,0,0,0.05,8.95,0)" xlink:href="#bp"/><use transform="matrix(0.05,0,0,0.05,12.899999999999999,0)" xlink:href="#bb"/></g><g id="S"><use transform="matrix(0.05,0,0,0.05,0,0)" xlink:href="#bl"/><use transform="matrix(0.05,0,0,0.05,10,0)" xlink:href="#bk"/><use transform="matrix(0.05,0,0,0.05,20,0)" xlink:href="#bp"/><use transform="matrix(0.05,0,0,0.05,23.95,0)" xlink:href="#be"/><use transform="matrix(0.05,0,0,0.05,33.95,0)" xlink:href="#bo"/><use transform="matrix(0.05,0,0,0.05,43.95,0)" xlink:href="#ba"/><use transform="matrix(0.05,0,0,0.05,53.95,0)" xlink:href="#bb"/><use transform="matrix(0.05,0,0,0.05,63.95,0)" xlink:href="#ba"/></g><g id="T"><use transform="matrix(0.05,0,0,0.05,0,0)" xlink:href="#bl"/><use transform="matrix(0.05,0,0,0.05,10,0)" xlink:href="#bi"/><use transform="matrix(0.05,0,0,0.05,19,0)" xlink:href="#bb"/><use transform="matrix(0.05,0,0,0.05,29,0)" xlink:href="#bj"/></g><g id="U"><use transform="matrix(0.05,0,0,0.05,0,0)" xlink:href="#bA"/><use transform="matrix(0.05,0,0,0.05,10,0)" xlink:href="#be"/><use transform="matrix(0.05,0,0,0.05,20,0)" xlink:href="#bv"/><use transform="matrix(0.05,0,0,0.05,34.95,0)" xlink:href="#bb"/><use transform="matrix(0.05,0,0,0.05,44.95,0)" xlink:href="#bk"/><use transform="matrix(0.05,0,0,0.05,54.95,0)" xlink:href="#bo"/><use transform="matrix(0.05,0,0,0.05,64.95,0)" xlink:href="#bf"/><use transform="matrix(0.05,0,0,0.05,74.95,0)" xlink:href="#bb"/></g><g id="V"><use transform="matrix(0.05,0,0,0.05,0,0)" xlink:href="#bj"/><use transform="matrix(0.05,0,0,0.05,5.95,0)" xlink:href="#bb"/><use transform="matrix(0.05,0,0,0.05,15.949999999999998,0)" xlink:href="#bm"/><use transform="matrix(0.05,0,0,0.05,20.95,0)" xlink:href="#bl"/><use transform="matrix(0.05,0,0,0.05,30.950000000000003,0)" xlink:href="#bj"/><use transform="matrix(0.05,0,0,0.05,36.9,0)" xlink:href="#aZ"/><use transform="matrix(0.05,0,0,0.05,46.9,0)" xlink:href="#bb"/><use transform="matrix(0.05,0,0,0.05,56.900000000000006,0)" xlink:href="#ba"/></g><g id="W"><use transform="matrix(0.05,0,0,0.05,0,0)" xlink:href="#bD"/><use transform="matrix(0.05,0,0,0.05,10.65,0)" xlink:href="#bo"/><use transform="matrix(0.05,0,0,0.05,20.65,0)" xlink:href="#bp"/><use transform="matrix(0.05,0,0,0.05,24.599999999999998,0)" xlink:href="#bg"/><use transform="matrix(0.05,0,0,0.05,28.549999999999997,0)" xlink:href="#ba"/></g><g id="X"><use transform="matrix(0.05,0,0,0.05,0,0)" xlink:href="#bD"/><use transform="matrix(0.05,0,0,0.05,11.65,0)" xlink:href="#bg"/><use transform="matrix(0.05,0,0,0.05,15.600000000000001,0)" xlink:href="#ba"/><use transform="matrix(0.05,0,0,0.05,25.6,0)" xlink:href="#bb"/><use transform="matrix(0.05,0,0,0.05,35.6,0)" xlink:href="#be"/></g><g id="Y"><use transform="matrix(0.05,0,0,0.05,0,0)" xlink:href="#bC"/><use transform="matrix(0.05,0,0,0.05,10.950000000000001,0)" xlink:href="#bg"/><use transform="matrix(0.05,0,0,0.05,14.9,0)" xlink:href="#bp"/><use transform="matrix(0.05,0,0,0.05,18.85,0)" xlink:href="#bb"/></g><g id="Z"><use transform="matrix(0.05,0,0,0.05,0,0)" xlink:href="#bn"/><use transform="matrix(0.05,0,0,0.05,9,0)" xlink:href="#bA"/><use transform="matrix(0.05,0,0,0.05,19,0)" xlink:href="#bb"/><use transform="matrix(0.05,0,0,0.05,29,0)" xlink:href="#bn"/><use transform="matrix(0.05,0,0,0.05,38,0)" xlink:href="#bB"/></g><g id="aa"><use transform="matrix(0.05,0,0,0.05,0,0)" xlink:href="#bg"/><use transform="matrix(0.05,0,0,0.05,3.95,0)" xlink:href="#bs"/></g><g id="ab"><use transform="matrix(0.05,0,0,0.05,0,0)" xlink:href="#bj"/><use transform="matrix(0.05,0,0,0.05,5.95,0)" xlink:href="#bb"/><use transform="matrix(0.05,0,0,0.05,15.949999999999998,0)" xlink:href="#bf"/><use transform="matrix(0.05,0,0,0.05,25.950000000000003,0)" xlink:href="#bg"/><use transform="matrix(0.05,0,0,0.05,29.899999999999995,0)" xlink:href="#bi"/><use transform="matrix(0.05,0,0,0.05,38.9,0)" xlink:href="#bm"/><use transform="matrix(0.05,0,0,0.05,43.9,0)" xlink:href="#bj"/><use transform="matrix(0.05,0,0,0.05,49.85,0)" xlink:href="#bo"/><use transform="matrix(0.05,0,0,0.05,59.85,0)" xlink:href="#bm"/><use transform="matrix(0.05,0,0,0.05,64.85,0)" xlink:href="#bg"/><use transform="matrix(0.05,0,0,0.05,68.8,0)" xlink:href="#be"/><use transform="matrix(0.05,0,0,0.05,78.8,0)" xlink:href="#aZ"/></g><g id="ac"><use transform="matrix(0.05,0,0,0.05,0,0)" xlink:href="#bw"/><use transform="matrix(0.05,0,0,0.05,9,0)" xlink:href="#bo"/><use transform="matrix(0.05,0,0,0.05,19,0)" xlink:href="#bp"/><use transform="matrix(0.05,0,0,0.05,22.95,0)" xlink:href="#bg"/><use transform="matrix(0.05,0,0,0.05,26.899999999999995,0)" xlink:href="#ba"/></g><g id="ad"><use transform="matrix(0.05,0,0,0.05,0,0)" xlink:href="#bl"/><use transform="matrix(0.05,0,0,0.05,10,0)" xlink:href="#bi"/><use transform="matrix(0.05,0,0,0.05,19,0)" xlink:href="#bb"/><use transform="matrix(0.05,0,0,0.05,29,0)" xlink:href="#bj"/></g><g id="ae"><use transform="matrix(0.05,0,0,0.05,0,0)" xlink:href="#bp"/><use transform="matrix(0.05,0,0,0.05,3.95,0)" xlink:href="#be"/><use transform="matrix(0.05,0,0,0.05,13.949999999999998,0)" xlink:href="#bf"/><use transform="matrix(0.05,0,0,0.05,23.95,0)" xlink:href="#bg"/><use transform="matrix(0.05,0,0,0.05,27.899999999999995,0)" xlink:href="#aZ"/></g><g id="af"><use transform="matrix(0.05,0,0,0.05,0,0)" xlink:href="#bb"/><use transform="matrix(0.05,0,0,0.05,10,0)" xlink:href="#bc"/><use transform="matrix(0.05,0,0,0.05,19,0)" xlink:href="#bg"/><use transform="matrix(0.05,0,0,0.05,22.95,0)" xlink:href="#bi"/><use transform="matrix(0.05,0,0,0.05,31.950000000000003,0)" xlink:href="#bm"/><use transform="matrix(0.05,0,0,0.05,36.95,0)" xlink:href="#bi"/></g><g id="ag"><use transform="matrix(0.05,0,0,0.05,0,0)" xlink:href="#bg"/><use transform="matrix(0.05,0,0,0.05,3.95,0)" xlink:href="#bs"/></g><g id="ah"><use transform="matrix(0.05,0,0,0.05,0,0)" xlink:href="#bp"/><use transform="matrix(0.05,0,0,0.05,3.95,0)" xlink:href="#be"/><use transform="matrix(0.05,0,0,0.05,13.949999999999998,0)" xlink:href="#bf"/><use transform="matrix(0.05,0,0,0.05,23.95,0)" xlink:href="#bg"/><use transform="matrix(0.05,0,0,0.05,27.899999999999995,0)" xlink:href="#aZ"/></g><g id="ai"><use transform="matrix(0.05,0,0,0.05,0,0)" xlink:href="#bw"/><use transform="matrix(0.05,0,0,0.05,9,0)" xlink:href="#bo"/><use transform="matrix(0.05,0,0,0.05,19,0)" xlink:href="#bp"/><use transform="matrix(0.05,0,0,0.05,22.95,0)" xlink:href="#bl"/><use transform="matrix(0.05,0,0,0.05,32.95,0)" xlink:href="#ba"/></g><path d="M127-220V0H93v-220H8v-28h204v28h-85" id="bG"/><g id="aj"><use transform="matrix(0.05,0,0,0.05,0,0)" xlink:href="#bG"/><use transform="matrix(0.05,0,0,0.05,10.3,0)" xlink:href="#bg"/><use transform="matrix(0.05,0,0,0.05,14.25,0)" xlink:href="#bn"/><use transform="matrix(0.05,0,0,0.05,23.25,0)" xlink:href="#bB"/><use transform="matrix(0.05,0,0,0.05,32.25,0)" xlink:href="#bb"/><use transform="matrix(0.05,0,0,0.05,42.25,0)" xlink:href="#bm"/></g><g id="ak"><use transform="matrix(0.05,0,0,0.05,0,0)" xlink:href="#bC"/><use transform="matrix(0.05,0,0,0.05,10.950000000000001,0)" xlink:href="#be"/><use transform="matrix(0.05,0,0,0.05,20.950000000000003,0)" xlink:href="#bj"/><use transform="matrix(0.05,0,0,0.05,26.900000000000002,0)" xlink:href="#bv"/></g><g id="al"><use transform="matrix(0.05,0,0,0.05,0,0)" xlink:href="#bm"/><use transform="matrix(0.05,0,0,0.05,5,0)" xlink:href="#bg"/><use transform="matrix(0.05,0,0,0.05,8.95,0)" xlink:href="#bn"/><use transform="matrix(0.05,0,0,0.05,17.95,0)" xlink:href="#bB"/><use transform="matrix(0.05,0,0,0.05,26.950000000000003,0)" xlink:href="#bb"/><use transform="matrix(0.05,0,0,0.05,36.95,0)" xlink:href="#bm"/></g><g id="am"><use transform="matrix(0.05,0,0,0.05,0,0)" xlink:href="#bs"/><use transform="matrix(0.05,0,0,0.05,5,0)" xlink:href="#be"/><use transform="matrix(0.05,0,0,0.05,15,0)" xlink:href="#bj"/><use transform="matrix(0.05,0,0,0.05,20.95,0)" xlink:href="#bv"/></g><g id="an"><use transform="matrix(0.05,0,0,0.05,0,0)" xlink:href="#bi"/><use transform="matrix(0.05,0,0,0.05,9,0)" xlink:href="#bl"/><use transform="matrix(0.05,0,0,0.05,19,0)" xlink:href="#bE"/><use transform="matrix(0.05,0,0,0.05,29,0)" xlink:href="#bv"/><use transform="matrix(0.05,0,0,0.05,43.95,0)" xlink:href="#bg"/><use transform="matrix(0.05,0,0,0.05,47.900000000000006,0)" xlink:href="#bm"/><use transform="matrix(0.05,0,0,0.05,52.900000000000006,0)" xlink:href="#bm"/><use transform="matrix(0.05,0,0,0.05,57.900000000000006,0)" xlink:href="#bb"/><use transform="matrix(0.05,0,0,0.05,67.9,0)" xlink:href="#ba"/></g><g id="ao"><use transform="matrix(0.05,0,0,0.05,0,0)" xlink:href="#bm"/><use transform="matrix(0.05,0,0,0.05,5,0)" xlink:href="#bg"/><use transform="matrix(0.05,0,0,0.05,8.95,0)" xlink:href="#bn"/><use transform="matrix(0.05,0,0,0.05,17.95,0)" xlink:href="#bB"/><use transform="matrix(0.05,0,0,0.05,26.950000000000003,0)" xlink:href="#bb"/><use transform="matrix(0.05,0,0,0.05,36.95,0)" xlink:href="#bm"/></g><g id="ap"><use transform="matrix(0.05,0,0,0.05,0,0)" xlink:href="#bm"/><use transform="matrix(0.05,0,0,0.05,5,0)" xlink:href="#bg"/><use transform="matrix(0.05,0,0,0.05,8.95,0)" xlink:href="#bn"/><use transform="matrix(0.05,0,0,0.05,17.95,0)" xlink:href="#bB"/><use transform="matrix(0.05,0,0,0.05,26.950000000000003,0)" xlink:href="#bb"/><use transform="matrix(0.05,0,0,0.05,36.95,0)" xlink:href="#bm"/></g><g id="aq"><use transform="matrix(0.05,0,0,0.05,0,0)" xlink:href="#bs"/><use transform="matrix(0.05,0,0,0.05,5,0)" xlink:href="#be"/><use transform="matrix(0.05,0,0,0.05,15,0)" xlink:href="#bj"/><use transform="matrix(0.05,0,0,0.05,20.95,0)" xlink:href="#bv"/></g><g id="ar"><use transform="matrix(0.05,0,0,0.05,0,0)" xlink:href="#bw"/><use transform="matrix(0.05,0,0,0.05,9,0)" xlink:href="#bo"/><use transform="matrix(0.05,0,0,0.05,19,0)" xlink:href="#bp"/><use transform="matrix(0.05,0,0,0.05,22.95,0)" xlink:href="#bg"/><use transform="matrix(0.05,0,0,0.05,26.899999999999995,0)" xlink:href="#ba"/></g><g id="as"><use transform="matrix(0.05,0,0,0.05,0,0)" xlink:href="#bi"/><use transform="matrix(0.05,0,0,0.05,9,0)" xlink:href="#bl"/><use transform="matrix(0.05,0,0,0.05,19,0)" xlink:href="#bE"/><use transform="matrix(0.05,0,0,0.05,29,0)" xlink:href="#bv"/><use transform="matrix(0.05,0,0,0.05,43.95,0)" xlink:href="#bg"/><use transform="matrix(0.05,0,0,0.05,47.900000000000006,0)" xlink:href="#bm"/><use transform="matrix(0.05,0,0,0.05,52.900000000000006,0)" xlink:href="#bb"/><use transform="matrix(0.05,0,0,0.05,62.900000000000006,0)" xlink:href="#ba"/></g><g id="at"><use transform="matrix(0.05,0,0,0.05,0,0)" xlink:href="#bm"/><use transform="matrix(0.05,0,0,0.05,5,0)" xlink:href="#be"/></g><g id="au"><use transform="matrix(0.05,0,0,0.05,0,0)" xlink:href="#bl"/><use transform="matrix(0.05,0,0,0.05,10,0)" xlink:href="#bi"/><use transform="matrix(0.05,0,0,0.05,19,0)" xlink:href="#bb"/><use transform="matrix(0.05,0,0,0.05,29,0)" xlink:href="#bj"/></g><path d="M206 0h-36l-40-164L89 0H53L-1-190h32L70-26l43-164h34l41 164 42-164h31" id="bH"/><g id="av"><use transform="matrix(0.05,0,0,0.05,0,0)" xlink:href="#be"/><use transform="matrix(0.05,0,0,0.05,10,0)" xlink:href="#bH"/><use transform="matrix(0.05,0,0,0.05,22.950000000000003,0)" xlink:href="#aZ"/><use transform="matrix(0.05,0,0,0.05,32.95,0)" xlink:href="#bi"/></g><g id="aw"><use transform="matrix(0.05,0,0,0.05,0,0)" xlink:href="#bw"/><use transform="matrix(0.05,0,0,0.05,9,0)" xlink:href="#bg"/><use transform="matrix(0.05,0,0,0.05,12.949999999999998,0)" xlink:href="#ba"/><use transform="matrix(0.05,0,0,0.05,22.95,0)" xlink:href="#bb"/><use transform="matrix(0.05,0,0,0.05,32.95,0)" xlink:href="#be"/></g><g id="ax"><use transform="matrix(0.05,0,0,0.05,0,0)" xlink:href="#ba"/><use transform="matrix(0.05,0,0,0.05,10,0)" xlink:href="#bb"/><use transform="matrix(0.05,0,0,0.05,20,0)" xlink:href="#bp"/><use transform="matrix(0.05,0,0,0.05,23.95,0)" xlink:href="#bb"/><use transform="matrix(0.05,0,0,0.05,33.95,0)" xlink:href="#bm"/><use transform="matrix(0.05,0,0,0.05,38.95,0)" xlink:href="#bb"/></g><g id="ay"><use transform="matrix(0.05,0,0,0.05,0,0)" xlink:href="#bg"/><use transform="matrix(0.05,0,0,0.05,3.95,0)" xlink:href="#bi"/></g><g id="az"><use transform="matrix(0.05,0,0,0.05,0,0)" xlink:href="#bj"/><use transform="matrix(0.05,0,0,0.05,5.95,0)" xlink:href="#bb"/><use transform="matrix(0.05,0,0,0.05,15.949999999999998,0)" xlink:href="#bv"/><use transform="matrix(0.05,0,0,0.05,30.899999999999995,0)" xlink:href="#be"/><use transform="matrix(0.05,0,0,0.05,40.9,0)" xlink:href="#bw"/><use transform="matrix(0.05,0,0,0.05,49.9,0)" xlink:href="#bb"/><use transform="matrix(0.05,0,0,0.05,59.900000000000006,0)" xlink:href="#ba"/></g><g id="aA"><use transform="matrix(0.05,0,0,0.05,0,0)" xlink:href="#bs"/><use transform="matrix(0.05,0,0,0.05,5,0)" xlink:href="#bj"/><use transform="matrix(0.05,0,0,0.05,10.95,0)" xlink:href="#be"/><use transform="matrix(0.05,0,0,0.05,20.95,0)" xlink:href="#bv"/></g><g id="aB"><use transform="matrix(0.05,0,0,0.05,0,0)" xlink:href="#bm"/><use transform="matrix(0.05,0,0,0.05,5,0)" xlink:href="#bA"/><use transform="matrix(0.05,0,0,0.05,15,0)" xlink:href="#bb"/></g><g id="aC"><use transform="matrix(0.05,0,0,0.05,0,0)" xlink:href="#bn"/><use transform="matrix(0.05,0,0,0.05,9,0)" xlink:href="#bj"/><use transform="matrix(0.05,0,0,0.05,14.949999999999998,0)" xlink:href="#bb"/><use transform="matrix(0.05,0,0,0.05,24.95,0)" xlink:href="#bo"/><use transform="matrix(0.05,0,0,0.05,34.95,0)" xlink:href="#bm"/><use transform="matrix(0.05,0,0,0.05,39.95,0)" xlink:href="#bb"/><use transform="matrix(0.05,0,0,0.05,49.95,0)" xlink:href="#bi"/></g><g id="aD"><use transform="matrix(0.05,0,0,0.05,0,0)" xlink:href="#aZ"/><use transform="matrix(0.05,0,0,0.05,10,0)" xlink:href="#bb"/><use transform="matrix(0.05,0,0,0.05,20,0)" xlink:href="#bH"/></g><g id="aE"><use transform="matrix(0.05,0,0,0.05,0,0)" xlink:href="#bo"/><use transform="matrix(0.05,0,0,0.05,10,0)" xlink:href="#bn"/><use transform="matrix(0.05,0,0,0.05,19,0)" xlink:href="#bn"/><use transform="matrix(0.05,0,0,0.05,28,0)" xlink:href="#be"/><use transform="matrix(0.05,0,0,0.05,38,0)" xlink:href="#bl"/><use transform="matrix(0.05,0,0,0.05,48,0)" xlink:href="#aZ"/><use transform="matrix(0.05,0,0,0.05,58,0)" xlink:href="#bm"/></g><g id="aF"><use transform="matrix(0.05,0,0,0.05,0,0)" xlink:href="#bp"/><use transform="matrix(0.05,0,0,0.05,3.95,0)" xlink:href="#be"/><use transform="matrix(0.05,0,0,0.05,13.949999999999998,0)" xlink:href="#bf"/><use transform="matrix(0.05,0,0,0.05,23.95,0)" xlink:href="#bg"/><use transform="matrix(0.05,0,0,0.05,27.899999999999995,0)" xlink:href="#aZ"/><use transform="matrix(0.05,0,0,0.05,37.9,0)" xlink:href="#bi"/></g><g id="aG"><use transform="matrix(0.05,0,0,0.05,0,0)" xlink:href="#bH"/><use transform="matrix(0.05,0,0,0.05,12.950000000000001,0)" xlink:href="#bg"/><use transform="matrix(0.05,0,0,0.05,16.900000000000002,0)" xlink:href="#bm"/><use transform="matrix(0.05,0,0,0.05,21.900000000000002,0)" xlink:href="#bA"/></g><g id="aH"><use transform="matrix(0.05,0,0,0.05,0,0)" xlink:href="#bk"/><use transform="matrix(0.05,0,0,0.05,10,0)" xlink:href="#bj"/><use transform="matrix(0.05,0,0,0.05,15.949999999999998,0)" xlink:href="#bb"/><use transform="matrix(0.05,0,0,0.05,25.950000000000003,0)" xlink:href="#bc"/><use transform="matrix(0.05,0,0,0.05,34.95,0)" xlink:href="#bg"/><use transform="matrix(0.05,0,0,0.05,38.900000000000006,0)" xlink:href="#bi"/><use transform="matrix(0.05,0,0,0.05,47.900000000000006,0)" xlink:href="#bg"/><use transform="matrix(0.05,0,0,0.05,51.85,0)" xlink:href="#bm"/><use transform="matrix(0.05,0,0,0.05,56.85,0)" xlink:href="#bg"/><use transform="matrix(0.05,0,0,0.05,60.80000000000001,0)" xlink:href="#aZ"/><use transform="matrix(0.05,0,0,0.05,70.80000000000001,0)" xlink:href="#bf"/></g><g id="aI"><use transform="matrix(0.05,0,0,0.05,0,0)" xlink:href="#bp"/><use transform="matrix(0.05,0,0,0.05,3.95,0)" xlink:href="#be"/><use transform="matrix(0.05,0,0,0.05,13.949999999999998,0)" xlink:href="#bf"/><use transform="matrix(0.05,0,0,0.05,23.95,0)" xlink:href="#bg"/><use transform="matrix(0.05,0,0,0.05,27.899999999999995,0)" xlink:href="#aZ"/></g><g id="aJ"><use transform="matrix(0.05,0,0,0.05,0,0)" xlink:href="#bl"/><use transform="matrix(0.05,0,0,0.05,10,0)" xlink:href="#bi"/><use transform="matrix(0.05,0,0,0.05,19,0)" xlink:href="#bb"/><use transform="matrix(0.05,0,0,0.05,29,0)" xlink:href="#bj"/></g><g id="aK"><use transform="matrix(0.05,0,0,0.05,0,0)" xlink:href="#ba"/><use transform="matrix(0.05,0,0,0.05,10,0)" xlink:href="#bg"/><use transform="matrix(0.05,0,0,0.05,13.949999999999998,0)" xlink:href="#bi"/><use transform="matrix(0.05,0,0,0.05,22.95,0)" xlink:href="#bk"/><use transform="matrix(0.05,0,0,0.05,32.95,0)" xlink:href="#bp"/><use transform="matrix(0.05,0,0,0.05,36.900000000000006,0)" xlink:href="#bo"/><use transform="matrix(0.05,0,0,0.05,46.900000000000006,0)" xlink:href="#bF"/><use transform="matrix(0.05,0,0,0.05,55.900000000000006,0)" xlink:href="#bb"/><use transform="matrix(0.05,0,0,0.05,65.9,0)" xlink:href="#ba"/></g><g id="aL"><use transform="matrix(0.05,0,0,0.05,0,0)" xlink:href="#bb"/><use transform="matrix(0.05,0,0,0.05,10,0)" xlink:href="#bj"/><use transform="matrix(0.05,0,0,0.05,15.949999999999998,0)" xlink:href="#bj"/><use transform="matrix(0.05,0,0,0.05,21.9,0)" xlink:href="#be"/><use transform="matrix(0.05,0,0,0.05,31.899999999999995,0)" xlink:href="#bj"/></g><g id="aM"><use transform="matrix(0.05,0,0,0.05,0,0)" xlink:href="#bj"/><use transform="matrix(0.05,0,0,0.05,5.95,0)" xlink:href="#bb"/><use transform="matrix(0.05,0,0,0.05,15.949999999999998,0)" xlink:href="#bm"/><use transform="matrix(0.05,0,0,0.05,20.95,0)" xlink:href="#bl"/><use transform="matrix(0.05,0,0,0.05,30.950000000000003,0)" xlink:href="#bj"/><use transform="matrix(0.05,0,0,0.05,36.9,0)" xlink:href="#aZ"/><use transform="matrix(0.05,0,0,0.05,46.9,0)" xlink:href="#bi"/></g><g id="aN"><use transform="matrix(0.05,0,0,0.05,0,0)" xlink:href="#bm"/><use transform="matrix(0.05,0,0,0.05,5,0)" xlink:href="#be"/></g><g id="aO"><use transform="matrix(0.05,0,0,0.05,0,0)" xlink:href="#bA"/><use transform="matrix(0.05,0,0,0.05,10,0)" xlink:href="#be"/><use transform="matrix(0.05,0,0,0.05,20,0)" xlink:href="#bv"/><use transform="matrix(0.05,0,0,0.05,34.95,0)" xlink:href="#bb"/><use transform="matrix(0.05,0,0,0.05,44.95,0)" xlink:href="#bo"/><use transform="matrix(0.05,0,0,0.05,54.95,0)" xlink:href="#bk"/><use transform="matrix(0.05,0,0,0.05,64.95,0)" xlink:href="#bf"/><use transform="matrix(0.05,0,0,0.05,74.95,0)" xlink:href="#bb"/></g><g id="aP"><use transform="matrix(0.05,0,0,0.05,0,0)" xlink:href="#bh"/><use transform="matrix(0.05,0,0,0.05,12.950000000000001,0)" xlink:href="#bi"/><use transform="matrix(0.05,0,0,0.05,21.950000000000003,0)" xlink:href="#bb"/><use transform="matrix(0.05,0,0,0.05,31.950000000000003,0)" xlink:href="#bj"/></g><g id="aQ"><use transform="matrix(0.05,0,0,0.05,0,0)" xlink:href="#ba"/><use transform="matrix(0.05,0,0,0.05,10,0)" xlink:href="#bg"/><use transform="matrix(0.05,0,0,0.05,13.949999999999998,0)" xlink:href="#bj"/><use transform="matrix(0.05,0,0,0.05,19.9,0)" xlink:href="#bb"/><use transform="matrix(0.05,0,0,0.05,29.899999999999995,0)" xlink:href="#bn"/><use transform="matrix(0.05,0,0,0.05,38.9,0)" xlink:href="#bm"/><use transform="matrix(0.05,0,0,0.05,43.9,0)" xlink:href="#bb"/><use transform="matrix(0.05,0,0,0.05,53.900000000000006,0)" xlink:href="#ba"/></g><g id="aR"><use transform="matrix(0.05,0,0,0.05,0,0)" xlink:href="#bw"/><use transform="matrix(0.05,0,0,0.05,9,0)" xlink:href="#bg"/><use transform="matrix(0.05,0,0,0.05,12.949999999999998,0)" xlink:href="#ba"/><use transform="matrix(0.05,0,0,0.05,22.95,0)" xlink:href="#bb"/><use transform="matrix(0.05,0,0,0.05,32.95,0)" xlink:href="#be"/></g><g id="aS"><use transform="matrix(0.05,0,0,0.05,0,0)" xlink:href="#bk"/><use transform="matrix(0.05,0,0,0.05,10,0)" xlink:href="#bp"/><use transform="matrix(0.05,0,0,0.05,13.949999999999998,0)" xlink:href="#bo"/><use transform="matrix(0.05,0,0,0.05,23.95,0)" xlink:href="#bF"/><use transform="matrix(0.05,0,0,0.05,32.95,0)" xlink:href="#bb"/><use transform="matrix(0.05,0,0,0.05,42.95,0)" xlink:href="#bj"/></g><g id="aT"><use transform="matrix(0.05,0,0,0.05,0,0)" xlink:href="#bk"/><use transform="matrix(0.05,0,0,0.05,10,0)" xlink:href="#bo"/><use transform="matrix(0.05,0,0,0.05,20,0)" xlink:href="#bf"/><use transform="matrix(0.05,0,0,0.05,30,0)" xlink:href="#bb"/></g><g id="aU"><use transform="matrix(0.05,0,0,0.05,0,0)" xlink:href="#ba"/><use transform="matrix(0.05,0,0,0.05,10,0)" xlink:href="#bb"/><use transform="matrix(0.05,0,0,0.05,20,0)" xlink:href="#bp"/><use transform="matrix(0.05,0,0,0.05,23.95,0)" xlink:href="#bb"/><use transform="matrix(0.05,0,0,0.05,33.95,0)" xlink:href="#bm"/><use transform="matrix(0.05,0,0,0.05,38.95,0)" xlink:href="#bb"/><use transform="matrix(0.05,0,0,0.05,48.95,0)" xlink:href="#bi"/></g><g id="aV"><use transform="matrix(0.05,0,0,0.05,0,0)" xlink:href="#ba"/><use transform="matrix(0.05,0,0,0.05,10,0)" xlink:href="#bg"/><use transform="matrix(0.05,0,0,0.05,13.949999999999998,0)" xlink:href="#bj"/><use transform="matrix(0.05,0,0,0.05,19.9,0)" xlink:href="#bb"/><use transform="matrix(0.05,0,0,0.05,29.899999999999995,0)" xlink:href="#bn"/><use transform="matrix(0.05,0,0,0.05,38.9,0)" xlink:href="#bm"/><use transform="matrix(0.05,0,0,0.05,43.9,0)" xlink:href="#bb"/><use transform="matrix(0.05,0,0,0.05,53.900000000000006,0)" xlink:href="#ba"/></g><g id="aW"><use transform="matrix(0.05,0,0,0.05,0,0)" xlink:href="#bs"/><use transform="matrix(0.05,0,0,0.05,5,0)" xlink:href="#be"/><use transform="matrix(0.05,0,0,0.05,15,0)" xlink:href="#bj"/><use transform="matrix(0.05,0,0,0.05,20.95,0)" xlink:href="#bv"/></g><g id="aX"><use transform="matrix(0.05,0,0,0.05,0,0)" xlink:href="#bf"/><use transform="matrix(0.05,0,0,0.05,10,0)" xlink:href="#bg"/><use transform="matrix(0.05,0,0,0.05,13.949999999999998,0)" xlink:href="#bw"/><use transform="matrix(0.05,0,0,0.05,22.95,0)" xlink:href="#bb"/><use transform="matrix(0.05,0,0,0.05,32.95,0)" xlink:href="#aZ"/></g></defs></g></svg>