<svg xmlns="http://www.w3.org/2000/svg" xmlns:xlink="http://www.w3.org/1999/xlink" xmlns:lucid="lucid" width="1392.92" height="1240"><g transform="translate(-259.125 -60)" lucid:page-tab-id="0_0"><path d="M0 0h1760v1360H0z" fill="#fff"/><path d="M480 80h800v1200H480z" stroke="#000" stroke-width="2" fill-opacity="0"/><use xlink:href="#a" transform="matrix(1,0,0,1,487.99999999999994,88) translate(300.325 15.6)"/><use xlink:href="#b" transform="matrix(1,0,0,1,487.99999999999994,88) translate(350.925 15.6)"/><use xlink:href="#c" transform="matrix(1,0,0,1,487.99999999999994,88) translate(417.825 15.6)"/><path d="M359.75 679.75c0 10.9-8.84 19.75-19.75 19.75-10.9 0-19.75-8.84-19.75-19.75 0-10.9 8.84-19.75 19.75-19.75 10.9 0 19.75 8.84 19.75 19.75z" stroke="#000" stroke-width="2" fill="#fff"/><path d="M340 699.5v55.3l40 63.2m-40-63.2L300 818m0-98.75h80" stroke="#000" stroke-width="2" fill="none"/><path d="M300 660h80v180h-80z" fill="none"/><use xlink:href="#d" transform="matrix(1,0,0,1,220,818) translate(60.12499999999999 14.6)"/><use xlink:href="#e" transform="matrix(1,0,0,1,220,818) translate(141.975 14.6)"/><path d="M359.75 239.75c0 10.9-8.84 19.75-19.75 19.75-10.9 0-19.75-8.84-19.75-19.75 0-10.9 8.84-19.75 19.75-19.75 10.9 0 19.75 8.84 19.75 19.75z" stroke="#000" stroke-width="2" fill="#fff"/><path d="M340 259.5v55.3l40 63.2m-40-63.2L300 378m0-98.75h80" stroke="#000" stroke-width="2" fill="none"/><path d="M300 220h80v180h-80z" fill="none"/><use xlink:href="#f" transform="matrix(1,0,0,1,220,378) translate(101.05 14.6)"/><path d="M820 380c0 33.14-35.82 60-80 60s-80-26.86-80-60 35.82-60 80-60 80 26.86 80 60z" stroke="#000" stroke-width="2" fill="#fff"/><use xlink:href="#g" transform="matrix(1,0,0,1,660,320) translate(58.029999999999994 63.15)"/><path d="M820 540c0 33.14-35.82 60-80 60s-80-26.86-80-60 35.82-60 80-60 80 26.86 80 60z" stroke="#000" stroke-width="2" fill="#fff"/><use xlink:href="#h" transform="matrix(1,0,0,1,660,480) translate(16.304999999999986 63.15)"/><use xlink:href="#i" transform="matrix(1,0,0,1,660,480) translate(60.15499999999999 63.15)"/><use xlink:href="#j" transform="matrix(1,0,0,1,660,480) translate(110.755 63.15)"/><path d="M820 1020c0 33.14-35.82 60-80 60s-80-26.86-80-60 35.82-60 80-60 80 26.86 80 60z" stroke="#000" stroke-width="2" fill="#fff"/><use xlink:href="#k" transform="matrix(1,0,0,1,660,960) translate(28.75499999999999 63.15)"/><use xlink:href="#l" transform="matrix(1,0,0,1,660,960) translate(85.655 63.15)"/><path d="M820 1180c0 33.14-35.82 60-80 60s-80-26.86-80-60 35.82-60 80-60 80 26.86 80 60z" stroke="#000" stroke-width="2" fill="#fff"/><use xlink:href="#m" transform="matrix(1,0,0,1,660,1120) translate(40.754999999999995 51.9)"/><use xlink:href="#n" transform="matrix(1,0,0,1,660,1120) translate(84.305 51.9)"/><use xlink:href="#o" transform="matrix(1,0,0,1,660,1120) translate(47.05499999999999 73.5)"/><path d="M720 220c0 33.14-35.82 60-80 60s-80-26.86-80-60 35.82-60 80-60 80 26.86 80 60z" stroke="#000" stroke-width="2" fill="#fff"/><use xlink:href="#p" transform="matrix(1,0,0,1,560,160) translate(10.654999999999996 63.15)"/><use xlink:href="#q" transform="matrix(1,0,0,1,560,160) translate(53.555 63.15)"/><path d="M341.65 749.24l316.7-368.48M341.67 749.22l-2.63 3.06" stroke="#000" stroke-width="2" fill="none"/><path d="M659 380v.4l.04 1-1.47-1.27 1.48-1.72z"/><path d="M341.82 749.43l317.46-218.86M341.84 749.42l-3.3 2.28" stroke="#000" stroke-width="2" fill="none"/><path d="M659.82 531.28v.1l-1.13-1.62 1.72-1.2z"/><path d="M341.76 750.65l316.48 268.7M341.78 750.66l-3.07-2.6" stroke="#000" stroke-width="2" fill="none"/><path d="M659.04 1018.72L659 1020v.4l.04.94-1.47-1.24 1.3-1.53z"/><path d="M341.6 750.8l316.8 428.4M341.6 750.82l-2.38-3.23" stroke="#000" stroke-width="2" fill="none"/><path d="M659 1180v.4l.06 1.36-1.47-2 1.44-1.07z"/><path d="M341.92 309.62l216.16-89.24M341.95 309.6l-3.72 1.54" stroke="#000" stroke-width="2" fill="none"/><path d="M559 220v.4l.03.67-.6.25-.76-1.85 1.36-.57z"/><path d="M1140 460c0 33.14-35.82 60-80 60s-80-26.86-80-60 35.82-60 80-60 80 26.86 80 60z" stroke="#000" stroke-width="2" fill="#fff"/><use xlink:href="#r" transform="matrix(1,0,0,1,980,400) translate(26.10499999999999 51.9)"/><use xlink:href="#s" transform="matrix(1,0,0,1,980,400) translate(89.95500000000001 51.9)"/><use xlink:href="#t" transform="matrix(1,0,0,1,980,400) translate(60.08 73.5)"/><path d="M1140 290c0 33.14-35.82 60-80 60s-80-26.86-80-60 35.82-60 80-60 80 26.86 80 60z" stroke="#000" stroke-width="2" fill="#fff"/><use xlink:href="#u" transform="matrix(1,0,0,1,980,230) translate(15.604999999999999 63.15)"/><use xlink:href="#v" transform="matrix(1,0,0,1,980,230) translate(65.505 63.15)"/><path d="M820 700c0 33.14-35.82 60-80 60s-80-26.86-80-60 35.82-60 80-60 80 26.86 80 60z" stroke="#000" stroke-width="2" fill="#fff"/><use xlink:href="#w" transform="matrix(1,0,0,1,660,640) translate(26.25499999999999 63.15)"/><use xlink:href="#l" transform="matrix(1,0,0,1,660,640) translate(88.155 63.15)"/><path d="M342 749.84l316-49.68M342 749.84l-3.96.63" stroke="#000" stroke-width="2" fill="none"/><path d="M659 700v.4l.03.6-.9.15-.3-1.98 1.2-.2z"/><path d="M1459.75 219.75c0 10.9-8.84 19.75-19.75 19.75-10.9 0-19.75-8.84-19.75-19.75 0-10.9 8.84-19.75 19.75-19.75 10.9 0 19.75 8.84 19.75 19.75z" stroke="#000" stroke-width="2" fill="#fff"/><path d="M1440 239.5v55.3l40 63.2m-40-63.2l-40 63.2m0-98.75h80" stroke="#000" stroke-width="2" fill="none"/><path d="M1400 200h80v180h-80z" fill="none"/><use xlink:href="#x" transform="matrix(1,0,0,1,1320,358) translate(69.05 14.4)"/><use xlink:href="#y" transform="matrix(1,0,0,1,1320,358) translate(63.05 36)"/><use xlink:href="#z" transform="matrix(1,0,0,1,1320,358) translate(120 57.6)"/><path d="M1142 290h296" stroke="#000" stroke-width="2" fill="none"/><path d="M1142.03 291h-1.06l.03-1v-.4l-.03-.6h1.06z"/><path d="M1437.97 290h4.03" stroke="#000" stroke-width="2" fill="none"/><path d="M978.56 458.66l-.9 1.78-17.36-8.8.9-1.77zm-34.72-17.58l-.9 1.78-23.82-12.06h4.42zm-62.96-31.88h-4.42l-20.3-10.28.9-1.78zm-41.18-20.85l-.9 1.78-17.36-8.8.9-1.77z"/><path d="M822.37 379.57l-.9 1.8-.5-.27.03-1.1v-.4l-.03-.74zM979.03 458.9L979 460v.4l.03.74-1.4-.7.9-1.8z"/><use xlink:href="#A" transform="matrix(1,0,0,1,852,409.2) translate(0 14.4)"/><path d="M839.73 370.48l-17.37 9.9-1-1.74 17.38-9.9zm52.08-29.67l-34.7 19.8-1-1.74 34.72-19.78zm52.1-29.67h-4l3-1.72zm34.73-19.77l-17.37 9.9-1-1.74 17.38-9.9z"/><path d="M822.4 380.36l-1.44.8.04-1.15v-.4l-.03-.73.43-.25zM979 290v.4l.03.73-.43.25-1-1.74 1.44-.8z"/><use xlink:href="#B" transform="matrix(1,0,0,1,873.501108106675,311.12658257000686) translate(0 14.4)"/><path d="M739.42 317.7l-.7 1.88-16.37-6.22.72-1.86zm-81.77-31.06l-.72 1.86-16.35-6.2.7-1.88z"/><path d="M640 281h1.1l-.5 1.3-3.67-1.4zM743.07 319.1L740 319h-1.1l.5-1.3z"/><use xlink:href="#A" transform="matrix(1,0,0,1,642,289.2) translate(0 14.4)"/><path d="M1120 1000c0 33.14-35.82 60-80 60s-80-26.86-80-60 35.82-60 80-60 80 26.86 80 60z" stroke="#000" stroke-width="2" fill="#fff"/><use xlink:href="#u" transform="matrix(1,0,0,1,960,940) translate(30.08 63.15)"/><use xlink:href="#C" transform="matrix(1,0,0,1,960,940) translate(79.97999999999999 63.15)"/><path d="M840.55 1018.18l-18.42 2.67-.28-1.98 18.7-2.7zm117.6-17.05l-18.7 2.7v-2l18.42-2.68z"/><path d="M822.16 1020.84l-1.2.17.04-1v-.4l-.03-.6.9-.14zM959 1000v.4l.03.6-.9.14-.3-1.98 1.2-.17z"/><use xlink:href="#B" transform="matrix(1,0,0,1,840.55,999.2) translate(0 14.4)"/><path d="M1599.75 559.75c0 10.9-8.84 19.75-19.75 19.75-10.9 0-19.75-8.84-19.75-19.75 0-10.9 8.84-19.75 19.75-19.75 10.9 0 19.75 8.84 19.75 19.75z" stroke="#000" stroke-width="2" fill="#fff"/><path d="M1580 579.5v55.3l40 63.2m-40-63.2l-40 63.2m0-98.75h80" stroke="#000" stroke-width="2" fill="none"/><path d="M1540 540h80v180h-80z" fill="none"/><use xlink:href="#x" transform="matrix(1,0,0,1,1460,698) translate(69.05 14.4)"/><use xlink:href="#D" transform="matrix(1,0,0,1,1460,698) translate(85 36)"/><path d="M1578.22 630.63l-456.44 368.74M1578.2 630.64l3.13-2.53" stroke="#000" stroke-width="2" fill="none"/><path d="M1122.43 1000.13l-1.47 1.2.04-1.32v-.4l-.04-.86.2-.16z"/><path d="M1578 624.77L822 699.9M1577.98 624.77l4-.4" stroke="#000" stroke-width="2" fill="none"/><path d="M822.12 700.9l-1.15.1.03-1v-.4l-.03-.6.95-.1z"/><path d="M340 658V438.5" stroke="#000" stroke-width="2" fill="none"/><path d="M341 659.12l-.95-.12-1.05.03v-1.06h2z"/><path d="M340 423.24l4.64 14.26h-9.28z" stroke="#000" stroke-width="2"/><path d="M740 860c0 33.14-35.82 60-80 60s-80-26.86-80-60 35.82-60 80-60 80 26.86 80 60z" stroke="#000" stroke-width="2" fill="#fff"/><use xlink:href="#w" transform="matrix(1,0,0,1,580,800) translate(17.12999999999999 63.15)"/><use xlink:href="#E" transform="matrix(1,0,0,1,580,800) translate(79.03 63.15)"/><use xlink:href="#F" transform="matrix(1,0,0,1,580,800) translate(106.98 63.15)"/><path d="M920 860c0 33.14-35.82 60-80 60s-80-26.86-80-60 35.82-60 80-60 80 26.86 80 60z" stroke="#000" stroke-width="2" fill="#fff"/><use xlink:href="#w" transform="matrix(1,0,0,1,760,800) translate(20.654999999999994 63.15)"/><use xlink:href="#E" transform="matrix(1,0,0,1,760,800) translate(82.555 63.15)"/><use xlink:href="#G" transform="matrix(1,0,0,1,760,800) translate(110.50500000000001 63.15)"/><path d="M660 798v-18h80v-.5" stroke="#000" stroke-width="2" fill="none"/><path d="M661 799.03l-1-.03h-1v-1.03h2z"/><path d="M740 764.24l4.64 14.26h-9.28z" stroke="#000" stroke-width="2"/><path d="M840 798v-18H740v-.5" stroke="#000" stroke-width="2" fill="none"/><path d="M841 799.03l-1-.03h-1v-1.03h2z"/><path d="M740 764.24l4.64 14.26h-9.28z" stroke="#000" stroke-width="2"/><path d="M1060 600c0 33.14-35.82 60-80 60s-80-26.86-80-60 35.82-60 80-60 80 26.86 80 60z" stroke="#000" stroke-width="2" fill="#fff"/><use xlink:href="#H" transform="matrix(1,0,0,1,900,540) translate(29.254999999999995 51.9)"/><use xlink:href="#I" transform="matrix(1,0,0,1,900,540) translate(79.85499999999999 51.9)"/><use xlink:href="#J" transform="matrix(1,0,0,1,900,540) translate(59.005 73.5)"/><path d="M817.85 559.46l84.3 21.08" fill="none"/><path d="M817.85 559.46l28.1 7.03m28.1 7l28.1 7.04" stroke="#000" stroke-width="2" fill="none"/><path d="M818.12 558.5l-.5 1.94-1.14-.3.8-1.85zM903.52 579.85l-.8 1.86-.84-.2.5-1.94z"/><g><use xlink:href="#B" transform="matrix(1,0,0,1,818.5446436589174,540.5753390132994) translate(0 14.4)"/></g><path d="M1419.75 459.75c0 10.9-8.84 19.75-19.75 19.75-10.9 0-19.75-8.84-19.75-19.75 0-10.9 8.84-19.75 19.75-19.75 10.9 0 19.75 8.84 19.75 19.75z" stroke="#000" stroke-width="2" fill="#fff"/><path d="M1400 479.5v55.3l40 63.2m-40-63.2l-40 63.2m0-98.75h80" stroke="#000" stroke-width="2" fill="none"/><path d="M1360 440h80v180h-80z" fill="none"/><g><use xlink:href="#x" transform="matrix(1,0,0,1,1280,598) translate(69.05 14.4)"/><use xlink:href="#K" transform="matrix(1,0,0,1,1280,598) translate(56.62499999999999 36)"/><use xlink:href="#L" transform="matrix(1,0,0,1,1280,598) translate(139.475 36)"/></g><path d="M1398.02 530.2l-336.04 69.6M1398 530.2l3.94-.8" stroke="#000" stroke-width="2" fill="none"/><path d="M1062.2 600.77l-1.23.26.03-1.02v-.4l-.03-.62.83-.17z"/><path d="M1398.03 529.74l-256.06-69.48M1398 529.73l3.9 1.06" stroke="#000" stroke-width="2" fill="none"/><path d="M1142.25 459.3l-.52 1.93-.76-.2.03-1.02v-.4l-.03-.64z"/><path d="M1100 1180c0 33.14-35.82 60-80 60s-80-26.86-80-60 35.82-60 80-60 80 26.86 80 60z" stroke="#000" stroke-width="2" fill="#fff"/><g><use xlink:href="#M" transform="matrix(1,0,0,1,940,1120) translate(23.554999999999993 63.15)"/><use xlink:href="#J" transform="matrix(1,0,0,1,940,1120) translate(94.45500000000001 63.15)"/></g><path d="M830.55 1181H822v-2h8.55zm107.45 0h-8.55v-2H938z"/><path d="M822.03 1181h-1.06l.03-1v-.4l-.03-.6h1.06zM939 1180v.4l.03.6h-1.06v-2h1.06z"/><g><use xlink:href="#B" transform="matrix(1,0,0,1,830.55,1169.2) translate(0 14.4)"/></g><path d="M1398.58 530.9l-297.16 648.2M1398.57 530.93l1.68-3.66" stroke="#000" stroke-width="2" fill="none"/><path d="M1102.34 1179.48l-1.42 3.1.08-2.57v-.4l-.03-.74z"/><defs><path d="M137 0h-34L2-248h35l83 218 83-218h36" id="N"/><path d="M24-231v-30h32v30H24zM24 0v-190h32V0H24" id="O"/><path d="M85-194c31 0 48 13 60 33l-1-100h32l1 261h-30c-2-10 0-23-3-31C134-8 116 4 85 4 32 4 16-35 15-94c0-66 23-100 70-100zm9 24c-40 0-46 34-46 75 0 40 6 74 45 74 42 0 51-32 51-76 0-42-9-74-50-73" id="P"/><path d="M100-194c63 0 86 42 84 106H49c0 40 14 67 53 68 26 1 43-12 49-29l28 8c-11 28-37 45-77 45C44 4 14-33 15-96c1-61 26-98 85-98zm52 81c6-60-76-77-97-28-3 7-6 17-6 28h103" id="Q"/><path d="M100-194c62-1 85 37 85 99 1 63-27 99-86 99S16-35 15-95c0-66 28-99 85-99zM99-20c44 1 53-31 53-75 0-43-8-75-51-75s-53 32-53 75 10 74 51 75" id="R"/><g id="a"><use transform="matrix(0.05,0,0,0.05,0,0)" xlink:href="#N"/><use transform="matrix(0.05,0,0,0.05,11.65,0)" xlink:href="#O"/><use transform="matrix(0.05,0,0,0.05,15.600000000000001,0)" xlink:href="#P"/><use transform="matrix(0.05,0,0,0.05,25.6,0)" xlink:href="#Q"/><use transform="matrix(0.05,0,0,0.05,35.6,0)" xlink:href="#R"/></g><path d="M185-189c-5-48-123-54-124 2 14 75 158 14 163 119 3 78-121 87-175 55-17-10-28-26-33-46l33-7c5 56 141 63 141-1 0-78-155-14-162-118-5-82 145-84 179-34 5 7 8 16 11 25" id="S"/><path d="M106-169C34-169 62-67 57 0H25v-261h32l-1 103c12-21 28-36 61-36 89 0 53 116 60 194h-32v-121c2-32-8-49-39-48" id="T"/><path d="M141-36C126-15 110 5 73 4 37 3 15-17 15-53c-1-64 63-63 125-63 3-35-9-54-41-54-24 1-41 7-42 31l-33-3c5-37 33-52 76-52 45 0 72 20 72 64v82c-1 20 7 32 28 27v20c-31 9-61-2-59-35zM48-53c0 20 12 33 32 33 41-3 63-29 60-74-43 2-92-5-92 41" id="U"/><path d="M114-163C36-179 61-72 57 0H25l-1-190h30c1 12-1 29 2 39 6-27 23-49 58-41v29" id="V"/><path d="M117-194c89-4 53 116 60 194h-32v-121c0-31-8-49-39-48C34-167 62-67 57 0H25l-1-190h30c1 10-1 24 2 32 11-22 29-35 61-36" id="W"/><path d="M177-190C167-65 218 103 67 71c-23-6-38-20-44-43l32-5c15 47 100 32 89-28v-30C133-14 115 1 83 1 29 1 15-40 15-95c0-56 16-97 71-98 29-1 48 16 59 35 1-10 0-23 2-32h30zM94-22c36 0 50-32 50-73 0-42-14-75-50-75-39 0-46 34-46 75s6 73 46 73" id="X"/><g id="b"><use transform="matrix(0.05,0,0,0.05,0,0)" xlink:href="#S"/><use transform="matrix(0.05,0,0,0.05,12,0)" xlink:href="#T"/><use transform="matrix(0.05,0,0,0.05,22,0)" xlink:href="#U"/><use transform="matrix(0.05,0,0,0.05,32,0)" xlink:href="#V"/><use transform="matrix(0.05,0,0,0.05,37.95,0)" xlink:href="#O"/><use transform="matrix(0.05,0,0,0.05,41.900000000000006,0)" xlink:href="#W"/><use transform="matrix(0.05,0,0,0.05,51.900000000000006,0)" xlink:href="#X"/></g><path d="M30-248c87 1 191-15 191 75 0 78-77 80-158 76V0H30v-248zm33 125c57 0 124 11 124-50 0-59-68-47-124-48v98" id="Y"/><path d="M24 0v-261h32V0H24" id="Z"/><path d="M59-47c-2 24 18 29 38 22v24C64 9 27 4 27-40v-127H5v-23h24l9-43h21v43h35v23H59v120" id="aa"/><path d="M101-234c-31-9-42 10-38 44h38v23H63V0H32v-167H5v-23h27c-7-52 17-82 69-68v24" id="ab"/><path d="M210-169c-67 3-38 105-44 169h-31v-121c0-29-5-50-35-48C34-165 62-65 56 0H25l-1-190h30c1 10-1 24 2 32 10-44 99-50 107 0 11-21 27-35 58-36 85-2 47 119 55 194h-31v-121c0-29-5-49-35-48" id="ac"/><g id="c"><use transform="matrix(0.05,0,0,0.05,0,0)" xlink:href="#Y"/><use transform="matrix(0.05,0,0,0.05,12,0)" xlink:href="#Z"/><use transform="matrix(0.05,0,0,0.05,15.949999999999998,0)" xlink:href="#U"/><use transform="matrix(0.05,0,0,0.05,25.950000000000003,0)" xlink:href="#aa"/><use transform="matrix(0.05,0,0,0.05,30.950000000000003,0)" xlink:href="#ab"/><use transform="matrix(0.05,0,0,0.05,35.95,0)" xlink:href="#R"/><use transform="matrix(0.05,0,0,0.05,45.95,0)" xlink:href="#V"/><use transform="matrix(0.05,0,0,0.05,51.900000000000006,0)" xlink:href="#ac"/></g><path d="M233-177c-1 41-23 64-60 70L243 0h-38l-65-103H63V0H30v-248c88 3 205-21 203 71zM63-129c60-2 137 13 137-47 0-61-80-42-137-45v92" id="ad"/><path d="M135-143c-3-34-86-38-87 0 15 53 115 12 119 90S17 21 10-45l28-5c4 36 97 45 98 0-10-56-113-15-118-90-4-57 82-63 122-42 12 7 21 19 24 35" id="ae"/><g id="d"><use transform="matrix(0.05,0,0,0.05,0,0)" xlink:href="#ad"/><use transform="matrix(0.05,0,0,0.05,12.950000000000001,0)" xlink:href="#Q"/><use transform="matrix(0.05,0,0,0.05,22.950000000000003,0)" xlink:href="#X"/><use transform="matrix(0.05,0,0,0.05,32.95,0)" xlink:href="#O"/><use transform="matrix(0.05,0,0,0.05,36.900000000000006,0)" xlink:href="#ae"/><use transform="matrix(0.05,0,0,0.05,45.900000000000006,0)" xlink:href="#aa"/><use transform="matrix(0.05,0,0,0.05,50.900000000000006,0)" xlink:href="#Q"/><use transform="matrix(0.05,0,0,0.05,60.900000000000006,0)" xlink:href="#V"/><use transform="matrix(0.05,0,0,0.05,66.85000000000001,0)" xlink:href="#P"/></g><path d="M232-93c-1 65-40 97-104 97C67 4 28-28 28-90v-158h33c8 89-33 224 67 224 102 0 64-133 71-224h33v155" id="af"/><g id="e"><use transform="matrix(0.05,0,0,0.05,0,0)" xlink:href="#af"/><use transform="matrix(0.05,0,0,0.05,12.950000000000001,0)" xlink:href="#ae"/><use transform="matrix(0.05,0,0,0.05,21.950000000000003,0)" xlink:href="#Q"/><use transform="matrix(0.05,0,0,0.05,31.950000000000003,0)" xlink:href="#V"/></g><g id="f"><use transform="matrix(0.05,0,0,0.05,0,0)" xlink:href="#af"/><use transform="matrix(0.05,0,0,0.05,12.950000000000001,0)" xlink:href="#ae"/><use transform="matrix(0.05,0,0,0.05,21.950000000000003,0)" xlink:href="#Q"/><use transform="matrix(0.05,0,0,0.05,31.950000000000003,0)" xlink:href="#V"/></g><path d="M30 0v-248h33v221h125V0H30" id="ag"/><g id="g"><use transform="matrix(0.05,0,0,0.05,0,0)" xlink:href="#ag"/><use transform="matrix(0.05,0,0,0.05,10,0)" xlink:href="#R"/><use transform="matrix(0.05,0,0,0.05,20,0)" xlink:href="#X"/><use transform="matrix(0.05,0,0,0.05,30,0)" xlink:href="#O"/><use transform="matrix(0.05,0,0,0.05,33.95,0)" xlink:href="#W"/></g><path d="M212-179c-10-28-35-45-73-45-59 0-87 40-87 99 0 60 29 101 89 101 43 0 62-24 78-52l27 14C228-24 195 4 139 4 59 4 22-46 18-125c-6-104 99-153 187-111 19 9 31 26 39 46" id="ah"/><path d="M96-169c-40 0-48 33-48 73s9 75 48 75c24 0 41-14 43-38l32 2c-6 37-31 61-74 61-59 0-76-41-82-99-10-93 101-131 147-64 4 7 5 14 7 22l-32 3c-4-21-16-35-41-35" id="ai"/><path d="M143 0L79-87 56-68V0H24v-261h32v163l83-92h37l-77 82L181 0h-38" id="aj"/><g id="h"><use transform="matrix(0.05,0,0,0.05,0,0)" xlink:href="#ah"/><use transform="matrix(0.05,0,0,0.05,12.950000000000001,0)" xlink:href="#Z"/><use transform="matrix(0.05,0,0,0.05,16.900000000000002,0)" xlink:href="#O"/><use transform="matrix(0.05,0,0,0.05,20.85,0)" xlink:href="#ai"/><use transform="matrix(0.05,0,0,0.05,29.85,0)" xlink:href="#aj"/></g><g id="i"><use transform="matrix(0.05,0,0,0.05,0,0)" xlink:href="#N"/><use transform="matrix(0.05,0,0,0.05,11.65,0)" xlink:href="#O"/><use transform="matrix(0.05,0,0,0.05,15.600000000000001,0)" xlink:href="#P"/><use transform="matrix(0.05,0,0,0.05,25.6,0)" xlink:href="#Q"/><use transform="matrix(0.05,0,0,0.05,35.6,0)" xlink:href="#R"/></g><g id="j"><use transform="matrix(0.05,0,0,0.05,0,0)" xlink:href="#ag"/><use transform="matrix(0.05,0,0,0.05,10,0)" xlink:href="#O"/><use transform="matrix(0.05,0,0,0.05,13.949999999999998,0)" xlink:href="#W"/><use transform="matrix(0.05,0,0,0.05,23.95,0)" xlink:href="#aj"/></g><path d="M30-248c118-7 216 8 213 122C240-48 200 0 122 0H30v-248zM63-27c89 8 146-16 146-99s-60-101-146-95v194" id="ak"/><g id="k"><use transform="matrix(0.05,0,0,0.05,0,0)" xlink:href="#ak"/><use transform="matrix(0.05,0,0,0.05,12.950000000000001,0)" xlink:href="#Q"/><use transform="matrix(0.05,0,0,0.05,22.950000000000003,0)" xlink:href="#Z"/><use transform="matrix(0.05,0,0,0.05,26.900000000000002,0)" xlink:href="#Q"/><use transform="matrix(0.05,0,0,0.05,36.900000000000006,0)" xlink:href="#aa"/><use transform="matrix(0.05,0,0,0.05,41.900000000000006,0)" xlink:href="#Q"/></g><g id="l"><use transform="matrix(0.05,0,0,0.05,0,0)" xlink:href="#N"/><use transform="matrix(0.05,0,0,0.05,11.65,0)" xlink:href="#O"/><use transform="matrix(0.05,0,0,0.05,15.600000000000001,0)" xlink:href="#P"/><use transform="matrix(0.05,0,0,0.05,25.6,0)" xlink:href="#Q"/><use transform="matrix(0.05,0,0,0.05,35.6,0)" xlink:href="#R"/></g><path d="M206 0h-36l-40-164L89 0H53L-1-190h32L70-26l43-164h34l41 164 42-164h31" id="al"/><g id="m"><use transform="matrix(0.05,0,0,0.05,0,0)" xlink:href="#N"/><use transform="matrix(0.05,0,0,0.05,11.65,0)" xlink:href="#O"/><use transform="matrix(0.05,0,0,0.05,15.600000000000001,0)" xlink:href="#Q"/><use transform="matrix(0.05,0,0,0.05,25.6,0)" xlink:href="#al"/></g><path d="M179-190L93 31C79 59 56 82 12 73V49c39 6 53-20 64-50L1-190h34L92-34l54-156h33" id="am"/><path d="M84 4C-5 8 30-112 23-190h32v120c0 31 7 50 39 49 72-2 45-101 50-169h31l1 190h-30c-1-10 1-25-2-33-11 22-28 36-60 37" id="an"/><g id="n"><use transform="matrix(0.05,0,0,0.05,0,0)" xlink:href="#am"/><use transform="matrix(0.05,0,0,0.05,9,0)" xlink:href="#R"/><use transform="matrix(0.05,0,0,0.05,19,0)" xlink:href="#an"/><use transform="matrix(0.05,0,0,0.05,29,0)" xlink:href="#V"/></g><path d="M115-194c55 1 70 41 70 98S169 2 115 4C84 4 66-9 55-30l1 105H24l-1-265h31l2 30c10-21 28-34 59-34zm-8 174c40 0 45-34 45-75s-6-73-45-74c-42 0-51 32-51 76 0 43 10 73 51 73" id="ao"/><g id="o"><use transform="matrix(0.05,0,0,0.05,0,0)" xlink:href="#af"/><use transform="matrix(0.05,0,0,0.05,12.950000000000001,0)" xlink:href="#ao"/><use transform="matrix(0.05,0,0,0.05,22.950000000000003,0)" xlink:href="#Z"/><use transform="matrix(0.05,0,0,0.05,26.900000000000002,0)" xlink:href="#R"/><use transform="matrix(0.05,0,0,0.05,36.900000000000006,0)" xlink:href="#U"/><use transform="matrix(0.05,0,0,0.05,46.900000000000006,0)" xlink:href="#P"/><use transform="matrix(0.05,0,0,0.05,56.900000000000006,0)" xlink:href="#ae"/></g><g id="p"><use transform="matrix(0.05,0,0,0.05,0,0)" xlink:href="#af"/><use transform="matrix(0.05,0,0,0.05,12.950000000000001,0)" xlink:href="#ae"/><use transform="matrix(0.05,0,0,0.05,21.950000000000003,0)" xlink:href="#Q"/><use transform="matrix(0.05,0,0,0.05,31.950000000000003,0)" xlink:href="#V"/></g><g id="q"><use transform="matrix(0.05,0,0,0.05,0,0)" xlink:href="#ad"/><use transform="matrix(0.05,0,0,0.05,12.950000000000001,0)" xlink:href="#Q"/><use transform="matrix(0.05,0,0,0.05,22.950000000000003,0)" xlink:href="#X"/><use transform="matrix(0.05,0,0,0.05,32.95,0)" xlink:href="#O"/><use transform="matrix(0.05,0,0,0.05,36.900000000000006,0)" xlink:href="#ae"/><use transform="matrix(0.05,0,0,0.05,45.900000000000006,0)" xlink:href="#aa"/><use transform="matrix(0.05,0,0,0.05,50.900000000000006,0)" xlink:href="#V"/><use transform="matrix(0.05,0,0,0.05,56.85,0)" xlink:href="#U"/><use transform="matrix(0.05,0,0,0.05,66.85000000000001,0)" xlink:href="#aa"/><use transform="matrix(0.05,0,0,0.05,71.85000000000001,0)" xlink:href="#O"/><use transform="matrix(0.05,0,0,0.05,75.80000000000001,0)" xlink:href="#R"/><use transform="matrix(0.05,0,0,0.05,85.80000000000001,0)" xlink:href="#W"/></g><g id="r"><use transform="matrix(0.05,0,0,0.05,0,0)" xlink:href="#ak"/><use transform="matrix(0.05,0,0,0.05,12.950000000000001,0)" xlink:href="#O"/><use transform="matrix(0.05,0,0,0.05,16.900000000000002,0)" xlink:href="#ae"/><use transform="matrix(0.05,0,0,0.05,25.900000000000002,0)" xlink:href="#ao"/><use transform="matrix(0.05,0,0,0.05,35.900000000000006,0)" xlink:href="#Z"/><use transform="matrix(0.05,0,0,0.05,39.85000000000001,0)" xlink:href="#U"/><use transform="matrix(0.05,0,0,0.05,49.85000000000001,0)" xlink:href="#am"/></g><g id="s"><use transform="matrix(0.05,0,0,0.05,0,0)" xlink:href="#ag"/><use transform="matrix(0.05,0,0,0.05,10,0)" xlink:href="#R"/><use transform="matrix(0.05,0,0,0.05,20,0)" xlink:href="#X"/><use transform="matrix(0.05,0,0,0.05,30,0)" xlink:href="#O"/><use transform="matrix(0.05,0,0,0.05,33.95,0)" xlink:href="#W"/></g><path d="M30 0v-248h187v28H63v79h144v27H63v87h162V0H30" id="ap"/><g id="t"><use transform="matrix(0.05,0,0,0.05,0,0)" xlink:href="#ap"/><use transform="matrix(0.05,0,0,0.05,12,0)" xlink:href="#V"/><use transform="matrix(0.05,0,0,0.05,17.95,0)" xlink:href="#V"/><use transform="matrix(0.05,0,0,0.05,23.9,0)" xlink:href="#R"/><use transform="matrix(0.05,0,0,0.05,33.9,0)" xlink:href="#V"/></g><g id="u"><use transform="matrix(0.05,0,0,0.05,0,0)" xlink:href="#N"/><use transform="matrix(0.05,0,0,0.05,11,0)" xlink:href="#Q"/><use transform="matrix(0.05,0,0,0.05,21,0)" xlink:href="#V"/><use transform="matrix(0.05,0,0,0.05,26.950000000000003,0)" xlink:href="#O"/><use transform="matrix(0.05,0,0,0.05,30.899999999999995,0)" xlink:href="#ab"/><use transform="matrix(0.05,0,0,0.05,35.9,0)" xlink:href="#am"/></g><g id="v"><use transform="matrix(0.05,0,0,0.05,0,0)" xlink:href="#Y"/><use transform="matrix(0.05,0,0,0.05,12,0)" xlink:href="#U"/><use transform="matrix(0.05,0,0,0.05,22,0)" xlink:href="#ae"/><use transform="matrix(0.05,0,0,0.05,31,0)" xlink:href="#ae"/><use transform="matrix(0.05,0,0,0.05,40,0)" xlink:href="#al"/><use transform="matrix(0.05,0,0,0.05,52.95,0)" xlink:href="#R"/><use transform="matrix(0.05,0,0,0.05,62.95,0)" xlink:href="#V"/><use transform="matrix(0.05,0,0,0.05,68.9,0)" xlink:href="#P"/></g><g id="w"><use transform="matrix(0.05,0,0,0.05,0,0)" xlink:href="#af"/><use transform="matrix(0.05,0,0,0.05,12.950000000000001,0)" xlink:href="#ao"/><use transform="matrix(0.05,0,0,0.05,22.950000000000003,0)" xlink:href="#Z"/><use transform="matrix(0.05,0,0,0.05,26.900000000000002,0)" xlink:href="#R"/><use transform="matrix(0.05,0,0,0.05,36.900000000000006,0)" xlink:href="#U"/><use transform="matrix(0.05,0,0,0.05,46.900000000000006,0)" xlink:href="#P"/></g><path d="M18-100v-36l175-74v27L42-118l151 64v27" id="aq"/><path d="M108 0H70L1-190h34L89-25l56-165h34" id="ar"/><path d="M18-27v-27l151-64-151-65v-27l175 74v36" id="as"/><g id="x"><use transform="matrix(0.05,0,0,0.05,0,0)" xlink:href="#aq"/><use transform="matrix(0.05,0,0,0.05,10.5,0)" xlink:href="#aq"/><use transform="matrix(0.05,0,0,0.05,21,0)" xlink:href="#S"/><use transform="matrix(0.05,0,0,0.05,33,0)" xlink:href="#Q"/><use transform="matrix(0.05,0,0,0.05,43,0)" xlink:href="#V"/><use transform="matrix(0.05,0,0,0.05,48.95,0)" xlink:href="#ar"/><use transform="matrix(0.05,0,0,0.05,57.95,0)" xlink:href="#O"/><use transform="matrix(0.05,0,0,0.05,61.900000000000006,0)" xlink:href="#ai"/><use transform="matrix(0.05,0,0,0.05,70.9,0)" xlink:href="#Q"/><use transform="matrix(0.05,0,0,0.05,80.9,0)" xlink:href="#as"/><use transform="matrix(0.05,0,0,0.05,91.4,0)" xlink:href="#as"/></g><path d="M205 0l-28-72H64L36 0H1l101-248h38L239 0h-34zm-38-99l-47-123c-12 45-31 82-46 123h93" id="at"/><g id="y"><use transform="matrix(0.05,0,0,0.05,0,0)" xlink:href="#at"/><use transform="matrix(0.05,0,0,0.05,12,0)" xlink:href="#an"/><use transform="matrix(0.05,0,0,0.05,22,0)" xlink:href="#aa"/><use transform="matrix(0.05,0,0,0.05,27,0)" xlink:href="#T"/><use transform="matrix(0.05,0,0,0.05,37,0)" xlink:href="#Q"/><use transform="matrix(0.05,0,0,0.05,47,0)" xlink:href="#W"/><use transform="matrix(0.05,0,0,0.05,57,0)" xlink:href="#aa"/><use transform="matrix(0.05,0,0,0.05,62,0)" xlink:href="#O"/><use transform="matrix(0.05,0,0,0.05,65.95,0)" xlink:href="#ai"/><use transform="matrix(0.05,0,0,0.05,74.95,0)" xlink:href="#U"/><use transform="matrix(0.05,0,0,0.05,84.95,0)" xlink:href="#aa"/><use transform="matrix(0.05,0,0,0.05,89.95,0)" xlink:href="#O"/><use transform="matrix(0.05,0,0,0.05,93.9,0)" xlink:href="#R"/><use transform="matrix(0.05,0,0,0.05,103.9,0)" xlink:href="#W"/></g><path d="M141 0L90-78 38 0H4l68-98-65-92h35l48 74 47-74h35l-64 92 68 98h-35" id="au"/><g id="A"><use transform="matrix(0.05,0,0,0.05,0,0)" xlink:href="#aq"/><use transform="matrix(0.05,0,0,0.05,10.5,0)" xlink:href="#aq"/><use transform="matrix(0.05,0,0,0.05,21,0)" xlink:href="#Q"/><use transform="matrix(0.05,0,0,0.05,31,0)" xlink:href="#au"/><use transform="matrix(0.05,0,0,0.05,40,0)" xlink:href="#aa"/><use transform="matrix(0.05,0,0,0.05,45,0)" xlink:href="#Q"/><use transform="matrix(0.05,0,0,0.05,55,0)" xlink:href="#W"/><use transform="matrix(0.05,0,0,0.05,65,0)" xlink:href="#P"/><use transform="matrix(0.05,0,0,0.05,75,0)" xlink:href="#as"/><use transform="matrix(0.05,0,0,0.05,85.5,0)" xlink:href="#as"/></g><g id="B"><use transform="matrix(0.05,0,0,0.05,0,0)" xlink:href="#aq"/><use transform="matrix(0.05,0,0,0.05,10.5,0)" xlink:href="#aq"/><use transform="matrix(0.05,0,0,0.05,21,0)" xlink:href="#O"/><use transform="matrix(0.05,0,0,0.05,24.95,0)" xlink:href="#W"/><use transform="matrix(0.05,0,0,0.05,34.95,0)" xlink:href="#ai"/><use transform="matrix(0.05,0,0,0.05,43.95,0)" xlink:href="#Z"/><use transform="matrix(0.05,0,0,0.05,47.900000000000006,0)" xlink:href="#an"/><use transform="matrix(0.05,0,0,0.05,57.900000000000006,0)" xlink:href="#P"/><use transform="matrix(0.05,0,0,0.05,67.9,0)" xlink:href="#Q"/><use transform="matrix(0.05,0,0,0.05,77.9,0)" xlink:href="#as"/><use transform="matrix(0.05,0,0,0.05,88.4,0)" xlink:href="#as"/></g><g id="C"><use transform="matrix(0.05,0,0,0.05,0,0)" xlink:href="#at"/><use transform="matrix(0.05,0,0,0.05,12,0)" xlink:href="#ai"/><use transform="matrix(0.05,0,0,0.05,21,0)" xlink:href="#aa"/><use transform="matrix(0.05,0,0,0.05,26,0)" xlink:href="#O"/><use transform="matrix(0.05,0,0,0.05,29.950000000000003,0)" xlink:href="#R"/><use transform="matrix(0.05,0,0,0.05,39.95,0)" xlink:href="#W"/></g><path d="M160-131c35 5 61 23 61 61C221 17 115-2 30 0v-248c76 3 177-17 177 60 0 33-19 50-47 57zm-97-11c50-1 110 9 110-42 0-47-63-36-110-37v79zm0 115c55-2 124 14 124-45 0-56-70-42-124-44v89" id="av"/><g id="D"><use transform="matrix(0.05,0,0,0.05,0,0)" xlink:href="#av"/><use transform="matrix(0.05,0,0,0.05,12,0)" xlink:href="#U"/><use transform="matrix(0.05,0,0,0.05,22,0)" xlink:href="#ai"/><use transform="matrix(0.05,0,0,0.05,31,0)" xlink:href="#aj"/><use transform="matrix(0.05,0,0,0.05,40,0)" xlink:href="#Q"/><use transform="matrix(0.05,0,0,0.05,50,0)" xlink:href="#W"/><use transform="matrix(0.05,0,0,0.05,60,0)" xlink:href="#P"/></g><g id="E"><use transform="matrix(0.05,0,0,0.05,0,0)" xlink:href="#ar"/><use transform="matrix(0.05,0,0,0.05,9,0)" xlink:href="#O"/><use transform="matrix(0.05,0,0,0.05,12.949999999999998,0)" xlink:href="#U"/></g><g id="F"><use transform="matrix(0.05,0,0,0.05,0,0)" xlink:href="#af"/><use transform="matrix(0.05,0,0,0.05,12.950000000000001,0)" xlink:href="#ad"/><use transform="matrix(0.05,0,0,0.05,25.900000000000002,0)" xlink:href="#ag"/></g><path d="M63-220v92h138v28H63V0H30v-248h175v28H63" id="aw"/><g id="G"><use transform="matrix(0.05,0,0,0.05,0,0)" xlink:href="#aw"/><use transform="matrix(0.05,0,0,0.05,10.950000000000001,0)" xlink:href="#O"/><use transform="matrix(0.05,0,0,0.05,14.9,0)" xlink:href="#Z"/><use transform="matrix(0.05,0,0,0.05,18.85,0)" xlink:href="#Q"/></g><g id="H"><use transform="matrix(0.05,0,0,0.05,0,0)" xlink:href="#N"/><use transform="matrix(0.05,0,0,0.05,11.65,0)" xlink:href="#O"/><use transform="matrix(0.05,0,0,0.05,15.600000000000001,0)" xlink:href="#P"/><use transform="matrix(0.05,0,0,0.05,25.6,0)" xlink:href="#Q"/><use transform="matrix(0.05,0,0,0.05,35.6,0)" xlink:href="#R"/></g><g id="I"><use transform="matrix(0.05,0,0,0.05,0,0)" xlink:href="#Y"/><use transform="matrix(0.05,0,0,0.05,12,0)" xlink:href="#Z"/><use transform="matrix(0.05,0,0,0.05,15.949999999999998,0)" xlink:href="#U"/><use transform="matrix(0.05,0,0,0.05,25.950000000000003,0)" xlink:href="#am"/><use transform="matrix(0.05,0,0,0.05,34.95,0)" xlink:href="#Q"/><use transform="matrix(0.05,0,0,0.05,44.95,0)" xlink:href="#V"/></g><g id="J"><use transform="matrix(0.05,0,0,0.05,0,0)" xlink:href="#Y"/><use transform="matrix(0.05,0,0,0.05,12,0)" xlink:href="#U"/><use transform="matrix(0.05,0,0,0.05,22,0)" xlink:href="#X"/><use transform="matrix(0.05,0,0,0.05,32,0)" xlink:href="#Q"/></g><path d="M16-82v-28h88v28H16" id="ax"/><g id="K"><use transform="matrix(0.05,0,0,0.05,0,0)" xlink:href="#aw"/><use transform="matrix(0.05,0,0,0.05,10.950000000000001,0)" xlink:href="#V"/><use transform="matrix(0.05,0,0,0.05,16.900000000000002,0)" xlink:href="#R"/><use transform="matrix(0.05,0,0,0.05,26.900000000000002,0)" xlink:href="#W"/><use transform="matrix(0.05,0,0,0.05,36.900000000000006,0)" xlink:href="#aa"/><use transform="matrix(0.05,0,0,0.05,41.900000000000006,0)" xlink:href="#ax"/><use transform="matrix(0.05,0,0,0.05,47.85000000000001,0)" xlink:href="#Q"/><use transform="matrix(0.05,0,0,0.05,57.85,0)" xlink:href="#W"/><use transform="matrix(0.05,0,0,0.05,67.85000000000001,0)" xlink:href="#P"/></g><g id="L"><use transform="matrix(0.05,0,0,0.05,0,0)" xlink:href="#S"/><use transform="matrix(0.05,0,0,0.05,12,0)" xlink:href="#Q"/><use transform="matrix(0.05,0,0,0.05,22,0)" xlink:href="#V"/><use transform="matrix(0.05,0,0,0.05,27.950000000000003,0)" xlink:href="#Q"/><use transform="matrix(0.05,0,0,0.05,37.95,0)" xlink:href="#V"/></g><g id="M"><use transform="matrix(0.05,0,0,0.05,0,0)" xlink:href="#af"/><use transform="matrix(0.05,0,0,0.05,12.950000000000001,0)" xlink:href="#ao"/><use transform="matrix(0.05,0,0,0.05,22.950000000000003,0)" xlink:href="#Z"/><use transform="matrix(0.05,0,0,0.05,26.900000000000002,0)" xlink:href="#R"/><use transform="matrix(0.05,0,0,0.05,36.900000000000006,0)" xlink:href="#U"/><use transform="matrix(0.05,0,0,0.05,46.900000000000006,0)" xlink:href="#P"/><use transform="matrix(0.05,0,0,0.05,56.900000000000006,0)" xlink:href="#ae"/></g></defs></g></svg>